<svg width="1920" height="512" viewBox="0 0 1920 512" fill="none" xmlns="http://www.w3.org/2000/svg">
<path d="M1433 232.045L1603.21 132.754C1643.85 109.048 1694.1 109.048 1734.74 132.754L1904.96 232.045L2075.17 331.337C2115.81 355.043 2166.06 355.043 2206.7 331.337L2376.91 232.045" stroke="#FBCD7E" stroke-width="1.6" stroke-linecap="round" stroke-linejoin="round"/>
<path d="M1433 184.85L1603.21 85.5587C1643.85 61.8528 1694.1 61.8529 1734.74 85.5587L1904.96 184.85L2075.17 284.141C2115.81 307.847 2166.06 307.847 2206.7 284.141L2376.91 184.85" stroke="#FBCD7E" stroke-width="1.6" stroke-linecap="round" stroke-linejoin="round"/>
<path d="M1433 137.654L1603.21 38.3627C1643.85 14.6568 1694.1 14.6568 1734.74 38.3627L1904.96 137.654L2075.17 236.945C2115.81 260.651 2166.06 260.651 2206.7 236.945L2376.91 137.654" stroke="#FBCD7E" stroke-width="1.6" stroke-linecap="round" stroke-linejoin="round"/>
<path d="M1433 279.242L1603.21 179.951C1643.85 156.245 1694.1 156.245 1734.74 179.951L1904.96 279.242L2075.17 378.533C2115.81 402.239 2166.06 402.239 2206.7 378.533L2376.91 279.242" stroke="#FBCD7E" stroke-width="1.6" stroke-linecap="round" stroke-linejoin="round"/>
<path d="M1433 326.437L1603.21 227.146C1643.85 203.44 1694.1 203.44 1734.74 227.146L1904.96 326.437L2075.17 425.729C2115.81 449.434 2166.06 449.434 2206.7 425.729L2376.91 326.437" stroke="#FBCD7E" stroke-width="1.6" stroke-linecap="round" stroke-linejoin="round"/>
<path d="M1433 373.634L1603.21 274.342C1643.85 250.636 1694.1 250.636 1734.74 274.342L1904.96 373.634L2075.17 472.925C2115.81 496.631 2166.06 496.631 2206.7 472.925L2376.91 373.634" stroke="#FBCD7E" stroke-width="1.6" stroke-linecap="round" stroke-linejoin="round"/>
<path d="M489 232.045L659.214 132.754C699.853 109.048 750.105 109.048 790.743 132.754L960.957 232.045L1131.17 331.337C1171.81 355.043 1222.06 355.043 1262.7 331.337L1432.91 232.045" stroke="#FBCD7E" stroke-width="1.6" stroke-linecap="round" stroke-linejoin="round"/>
<path d="M489 184.85L659.214 85.5587C699.853 61.8528 750.105 61.8529 790.743 85.5587L960.957 184.85L1131.17 284.141C1171.81 307.847 1222.06 307.847 1262.7 284.141L1432.91 184.85" stroke="#FBCD7E" stroke-width="1.6" stroke-linecap="round" stroke-linejoin="round"/>
<path d="M489 137.654L659.214 38.3627C699.852 14.6568 750.104 14.6568 790.743 38.3627L960.957 137.654L1131.17 236.945C1171.81 260.651 1222.06 260.651 1262.7 236.945L1432.91 137.654" stroke="#FBCD7E" stroke-width="1.6" stroke-linecap="round" stroke-linejoin="round"/>
<path d="M489 279.242L659.214 179.951C699.853 156.245 750.105 156.245 790.743 179.951L960.957 279.242L1131.17 378.533C1171.81 402.239 1222.06 402.239 1262.7 378.533L1432.91 279.242" stroke="#FBCD7E" stroke-width="1.6" stroke-linecap="round" stroke-linejoin="round"/>
<path d="M489 326.437L659.214 227.146C699.853 203.44 750.105 203.44 790.743 227.146L960.957 326.437L1131.17 425.729C1171.81 449.434 1222.06 449.434 1262.7 425.729L1432.91 326.437" stroke="#FBCD7E" stroke-width="1.6" stroke-linecap="round" stroke-linejoin="round"/>
<path d="M489 373.634L659.214 274.342C699.852 250.636 750.104 250.636 790.743 274.342L960.957 373.634L1131.17 472.925C1171.81 496.631 1222.06 496.631 1262.7 472.925L1432.91 373.634" stroke="#FBCD7E" stroke-width="1.6" stroke-linecap="round" stroke-linejoin="round"/>
<path d="M-456 232.045L-285.786 132.754C-245.147 109.048 -194.895 109.048 -154.257 132.754L15.9569 232.045L186.171 331.337C226.809 355.043 277.061 355.043 317.7 331.337L487.914 232.045" stroke="#FBCD7E" stroke-width="1.6" stroke-linecap="round" stroke-linejoin="round"/>
<path d="M-456 184.85L-285.786 85.5587C-245.147 61.8528 -194.895 61.8529 -154.257 85.5587L15.9571 184.85L186.171 284.141C226.81 307.847 277.061 307.847 317.7 284.141L487.914 184.85" stroke="#FBCD7E" stroke-width="1.6" stroke-linecap="round" stroke-linejoin="round"/>
<path d="M-456 137.654L-285.786 38.3627C-245.147 14.6568 -194.895 14.6568 -154.257 38.3627L15.9569 137.654L186.171 236.945C226.809 260.651 277.061 260.651 317.7 236.945L487.914 137.654" stroke="#FBCD7E" stroke-width="1.6" stroke-linecap="round" stroke-linejoin="round"/>
<path d="M-456 279.242L-285.786 179.951C-245.147 156.245 -194.895 156.245 -154.257 179.951L15.9569 279.242L186.171 378.533C226.809 402.239 277.061 402.239 317.7 378.533L487.914 279.242" stroke="#FBCD7E" stroke-width="1.6" stroke-linecap="round" stroke-linejoin="round"/>
<path d="M-456 326.437L-285.786 227.146C-245.147 203.44 -194.895 203.44 -154.257 227.146L15.9571 326.437L186.171 425.729C226.81 449.434 277.061 449.434 317.7 425.729L487.914 326.437" stroke="#FBCD7E" stroke-width="1.6" stroke-linecap="round" stroke-linejoin="round"/>
<path d="M-456 373.634L-285.786 274.342C-245.148 250.636 -194.896 250.636 -154.257 274.342L15.9566 373.634L186.17 472.925C226.809 496.631 277.061 496.631 317.7 472.925L487.913 373.634" stroke="#FBCD7E" stroke-width="1.6" stroke-linecap="round" stroke-linejoin="round"/>
</svg>
