<svg width="1920" height="1218" viewBox="0 0 1920 1218" fill="none" xmlns="http://www.w3.org/2000/svg">
<g opacity="0.24">
<path d="M58.5481 678.224L114.038 526.845C130.23 482.671 168.943 450.631 215.365 442.983L374.449 416.771L533.534 390.56C579.956 382.912 618.669 350.871 634.861 306.698L690.351 155.318" stroke="white" stroke-width="1.6" stroke-linecap="round" stroke-linejoin="round"/>
<path d="M32.4026 646.634L87.8926 495.255C104.085 451.081 142.798 419.041 189.219 411.392L348.304 385.181L507.389 358.97C553.81 351.322 592.523 319.281 608.715 275.108L664.205 123.728" stroke="white" stroke-width="1.6" stroke-linecap="round" stroke-linejoin="round"/>
<path d="M6.25735 615.044L61.7473 463.665C77.9396 419.491 116.652 387.451 163.074 379.802L322.159 353.591L481.243 327.38C527.665 319.732 566.378 287.691 582.57 243.518L638.06 92.1383" stroke="white" stroke-width="1.6" stroke-linecap="round" stroke-linejoin="round"/>
<path d="M84.6934 709.815L140.183 558.435C156.376 514.262 195.088 482.221 241.51 474.573L400.595 448.362L559.679 422.151C606.101 414.502 644.814 382.462 661.006 338.288L716.496 186.909" stroke="white" stroke-width="1.6" stroke-linecap="round" stroke-linejoin="round"/>
<path d="M110.839 741.405L166.329 590.025C182.521 545.852 221.234 513.811 267.656 506.163L426.74 479.952L585.825 453.741C632.246 446.092 670.959 414.052 687.152 369.879L742.642 218.499" stroke="white" stroke-width="1.6" stroke-linecap="round" stroke-linejoin="round"/>
<path d="M136.984 772.995L192.474 621.616C208.666 577.442 247.379 545.402 293.801 537.754L452.885 511.542L611.97 485.331C658.392 477.683 697.105 445.642 713.297 401.469L768.787 250.089" stroke="white" stroke-width="1.6" stroke-linecap="round" stroke-linejoin="round"/>
</g>
<g opacity="0.24">
<path d="M1894.59 605.374L1821.06 748.86C1799.6 790.729 1757.27 817.811 1710.27 819.743L1549.17 826.363L1388.08 832.983C1341.07 834.915 1298.74 861.997 1277.28 903.866L1203.75 1047.35" stroke="white" stroke-width="1.6" stroke-linecap="round" stroke-linejoin="round"/>
<path d="M1916.69 639.916L1843.16 783.402C1821.7 825.271 1779.37 852.353 1732.36 854.285L1571.27 860.905L1410.18 867.525C1363.17 869.457 1320.84 896.539 1299.38 938.408L1225.85 1081.89" stroke="white" stroke-width="1.6" stroke-linecap="round" stroke-linejoin="round"/>
<path d="M1938.79 674.458L1865.26 817.944C1843.8 859.813 1801.47 886.895 1754.46 888.827L1593.37 895.447L1432.28 902.067C1385.27 903.999 1342.94 931.081 1321.48 972.95L1247.95 1116.44" stroke="white" stroke-width="1.6" stroke-linecap="round" stroke-linejoin="round"/>
<path d="M1872.49 570.832L1798.96 714.317C1777.51 756.187 1735.18 783.268 1688.17 785.2L1527.07 791.821L1365.98 798.441C1318.97 800.373 1276.64 827.454 1255.19 869.324L1181.65 1012.81" stroke="white" stroke-width="1.6" stroke-linecap="round" stroke-linejoin="round"/>
<path d="M1850.4 536.29L1776.86 679.775C1755.41 721.645 1713.08 748.726 1666.07 750.658L1504.97 757.279L1343.88 763.899C1296.87 765.831 1254.54 792.912 1233.09 834.782L1159.55 978.267" stroke="white" stroke-width="1.6" stroke-linecap="round" stroke-linejoin="round"/>
<path d="M1828.3 501.747L1754.76 645.233C1733.31 687.102 1690.98 714.184 1643.97 716.116L1482.88 722.736L1321.78 729.356C1274.77 731.288 1232.44 758.37 1210.99 800.239L1137.46 943.725" stroke="white" stroke-width="1.6" stroke-linecap="round" stroke-linejoin="round"/>
</g>
</svg>
