<svg width="1920" height="1230" viewBox="0 0 1920 1230" fill="none" xmlns="http://www.w3.org/2000/svg">
<g opacity="0.24">
<path d="M1935.2 147.17L1971.28 340.897C1979.89 387.149 1962.94 434.457 1926.92 464.721L1776.04 591.48L1625.17 718.238C1589.15 748.502 1572.2 795.81 1580.81 842.063L1616.88 1035.79" stroke="#FBCD7E" stroke-width="1.6" stroke-linecap="round" stroke-linejoin="round"/>
<path d="M1979.63 163.085L2015.71 356.813C2024.32 403.065 2007.37 450.373 1971.35 480.637L1820.47 607.396L1669.6 734.154C1633.58 764.418 1616.63 811.726 1625.24 857.979L1661.32 1051.71" stroke="#FBCD7E" stroke-width="1.6" stroke-linecap="round" stroke-linejoin="round"/>
<path d="M2024.06 179.001L2060.14 372.728C2068.75 418.981 2051.8 466.289 2015.78 496.553L1864.91 623.311L1714.03 750.07C1678.01 780.334 1661.06 827.642 1669.67 873.894L1705.75 1067.62" stroke="#FBCD7E" stroke-width="1.6" stroke-linecap="round" stroke-linejoin="round"/>
<path d="M1890.77 131.253L1926.84 324.98C1935.46 371.233 1918.51 418.541 1882.49 448.805L1731.61 575.564L1580.74 702.322C1544.71 732.586 1527.77 779.894 1536.38 826.147L1572.45 1019.87" stroke="#FBCD7E" stroke-width="1.6" stroke-linecap="round" stroke-linejoin="round"/>
<path d="M1846.34 115.338L1882.41 309.065C1891.03 355.317 1874.08 402.625 1838.06 432.889L1687.18 559.648L1536.3 686.406C1500.28 716.67 1483.34 763.978 1491.95 810.231L1528.02 1003.96" stroke="#FBCD7E" stroke-width="1.6" stroke-linecap="round" stroke-linejoin="round"/>
<path d="M1801.91 99.4213L1837.98 293.148C1846.6 339.401 1829.65 386.709 1793.63 416.973L1642.75 543.731L1491.87 670.49C1455.85 700.754 1438.91 748.062 1447.52 794.314L1483.59 988.042" stroke="#FBCD7E" stroke-width="1.6" stroke-linecap="round" stroke-linejoin="round"/>
</g>
<g opacity="0.24">
<path d="M2206.2 243.17L2242.28 436.897C2250.89 483.149 2233.94 530.457 2197.92 560.721L2047.04 687.48L1896.17 814.238C1860.15 844.502 1843.2 891.81 1851.81 938.063L1887.88 1131.79" stroke="#FBCD7E" stroke-width="1.6" stroke-linecap="round" stroke-linejoin="round"/>
<path d="M2250.63 259.086L2286.71 452.813C2295.32 499.065 2278.37 546.373 2242.35 576.637L2091.47 703.396L1940.6 830.154C1904.58 860.418 1887.63 907.726 1896.24 953.979L1932.32 1147.71" stroke="#FBCD7E" stroke-width="1.6" stroke-linecap="round" stroke-linejoin="round"/>
<path d="M2295.06 275.001L2331.14 468.728C2339.75 514.981 2322.8 562.289 2286.78 592.553L2135.91 719.311L1985.03 846.07C1949.01 876.334 1932.06 923.642 1940.67 969.895L1976.75 1163.62" stroke="#FBCD7E" stroke-width="1.6" stroke-linecap="round" stroke-linejoin="round"/>
<path d="M2161.77 227.253L2197.84 420.98C2206.46 467.233 2189.51 514.541 2153.49 544.805L2002.61 671.564L1851.74 798.322C1815.71 828.586 1798.77 875.894 1807.38 922.147L1843.45 1115.87" stroke="#FBCD7E" stroke-width="1.6" stroke-linecap="round" stroke-linejoin="round"/>
<path d="M2117.34 211.338L2153.41 405.065C2162.03 451.317 2145.08 498.625 2109.06 528.889L1958.18 655.648L1807.3 782.406C1771.28 812.67 1754.34 859.978 1762.95 906.231L1799.02 1099.96" stroke="#FBCD7E" stroke-width="1.6" stroke-linecap="round" stroke-linejoin="round"/>
<path d="M2072.91 195.421L2108.98 389.148C2117.6 435.401 2100.65 482.709 2064.63 512.973L1913.75 639.731L1762.87 766.49C1726.85 796.754 1709.91 844.062 1718.52 890.314L1754.59 1084.04" stroke="#FBCD7E" stroke-width="1.6" stroke-linecap="round" stroke-linejoin="round"/>
</g>
<g opacity="0.24">
<path d="M44.2965 813.19L8.22307 619.463C-0.389486 573.21 16.5571 525.902 52.579 495.639L203.456 368.88L354.332 242.121C390.354 211.858 407.301 164.549 398.688 118.297L362.615 -75.4302" stroke="#FBCD7E" stroke-width="1.6" stroke-linecap="round" stroke-linejoin="round"/>
<path d="M-0.134647 797.274L-36.2081 603.547C-44.8206 557.295 -27.8741 509.986 8.14783 479.723L159.024 352.964L309.901 226.205C345.923 195.942 362.869 148.633 354.257 102.381L318.183 -91.3461" stroke="#FBCD7E" stroke-width="1.6" stroke-linecap="round" stroke-linejoin="round"/>
<path d="M-44.5658 781.358L-80.6392 587.631C-89.2518 541.379 -72.3052 494.071 -36.2833 463.807L114.593 337.048L265.47 210.29C301.492 180.026 318.438 132.718 309.826 86.4652L273.752 -107.262" stroke="#FBCD7E" stroke-width="1.6" stroke-linecap="round" stroke-linejoin="round"/>
<path d="M88.7277 829.106L52.6542 635.379C44.0417 589.127 60.9882 541.818 97.0101 511.555L247.887 384.796L398.763 258.038C434.785 227.774 451.732 180.466 443.119 134.213L407.046 -59.514" stroke="#FBCD7E" stroke-width="1.6" stroke-linecap="round" stroke-linejoin="round"/>
<path d="M133.159 845.022L97.0856 651.295C88.4731 605.042 105.42 557.734 141.442 527.47L292.318 400.712L443.195 273.953C479.217 243.69 496.163 196.381 487.551 150.129L451.477 -43.5983" stroke="#FBCD7E" stroke-width="1.6" stroke-linecap="round" stroke-linejoin="round"/>
<path d="M177.59 860.938L141.517 667.211C132.904 620.959 149.851 573.651 185.872 543.387L336.749 416.628L487.626 289.87C523.647 259.606 540.594 212.298 531.981 166.045L495.908 -27.6818" stroke="#FBCD7E" stroke-width="1.6" stroke-linecap="round" stroke-linejoin="round"/>
</g>
<g opacity="0.24">
<path d="M-226.703 717.19L-262.777 523.463C-271.389 477.21 -254.443 429.902 -218.421 399.638L-67.5445 272.88L83.3321 146.121C119.354 115.858 136.301 68.5493 127.688 22.2968L91.6145 -171.43" stroke="#FBCD7E" stroke-width="1.6" stroke-linecap="round" stroke-linejoin="round"/>
<path d="M-271.135 701.274L-307.208 507.547C-315.821 461.295 -298.874 413.986 -262.852 383.723L-111.976 256.964L38.901 130.205C74.9228 99.9416 91.8694 52.6334 83.2568 6.38091L47.1834 -187.346" stroke="#FBCD7E" stroke-width="1.6" stroke-linecap="round" stroke-linejoin="round"/>
<path d="M-315.566 685.358L-351.639 491.631C-360.252 445.379 -343.305 398.071 -307.283 367.807L-156.407 241.048L-5.53019 114.29C30.4917 84.0258 47.4382 36.7176 38.8257 -9.53489L2.75225 -203.262" stroke="#FBCD7E" stroke-width="1.6" stroke-linecap="round" stroke-linejoin="round"/>
<path d="M-376.41 685.358L-412.483 491.631C-421.096 445.379 -404.149 398.071 -368.127 367.807L-217.251 241.048L-66.3739 114.29C-30.3521 84.0258 -13.4055 36.7176 -22.0181 -9.53489L-58.0915 -203.262" stroke="#FBCD7E" stroke-width="1.6" stroke-linecap="round" stroke-linejoin="round"/>
<path d="M-182.272 733.106L-218.346 539.379C-226.958 493.127 -210.012 445.818 -173.99 415.555L-23.1133 288.796L127.763 162.037C163.785 131.774 180.732 84.4655 172.119 38.213L136.046 -155.514" stroke="#FBCD7E" stroke-width="1.6" stroke-linecap="round" stroke-linejoin="round"/>
<path d="M-137.841 749.022L-173.914 555.295C-182.527 509.042 -165.58 461.734 -129.558 431.47L21.3181 304.712L172.195 177.953C208.217 147.689 225.163 100.381 216.551 54.1287L180.477 -139.598" stroke="#FBCD7E" stroke-width="1.6" stroke-linecap="round" stroke-linejoin="round"/>
<path d="M-93.41 764.938L-129.483 571.211C-138.096 524.959 -121.149 477.651 -85.1276 447.387L65.749 320.628L216.626 193.87C252.647 163.606 269.594 116.298 260.981 70.0452L224.908 -123.682" stroke="#FBCD7E" stroke-width="1.6" stroke-linecap="round" stroke-linejoin="round"/>
</g>
</svg>
