<svg xmlns="http://www.w3.org/2000/svg" width="33" height="28" viewBox="0 0 33 28" fill="none">
<path d="M24.6067 6.02103L24.6071 6.0213L30.3132 10.0181C30.3133 10.0181 30.3133 10.0181 30.3134 10.0182C30.7451 10.3208 31.1656 10.8267 31.4788 11.4272C31.7919 12.0278 31.9666 12.6631 31.9666 13.1937V19.918C31.9666 22.0612 30.2286 23.8 28.0897 23.8H17.4102C15.2733 23.8 13.5333 22.0532 13.5333 19.9081V13.0648C13.5333 12.5736 13.691 11.9707 13.9765 11.3902C14.2619 10.81 14.645 10.3129 15.0374 10.0065L15.0375 10.0063L19.9989 6.12999C19.9992 6.12974 19.9995 6.1295 19.9998 6.12926C21.2532 5.15776 23.3031 5.10667 24.6067 6.02103Z" fill="white" stroke="#4B4B4B" stroke-width="1.4"/>
<path d="M16.2584 3.82826L16.2588 3.82852L22.9787 8.5301C23.5073 8.90011 24.0144 9.51239 24.39 10.2318C24.7656 10.9513 24.9784 11.7181 24.9784 12.3666V20.2766C24.9784 22.865 22.8768 24.9666 20.2884 24.9666H7.71178C5.12534 24.9666 3.02178 22.8553 3.02178 20.265V12.215C3.02178 11.6138 3.21424 10.8859 3.55645 10.1908C3.89847 9.49619 4.36027 8.89493 4.84063 8.52025L4.84078 8.52013L10.6839 3.95997C10.6841 3.95975 10.6844 3.95953 10.6847 3.95931C12.2039 2.78285 14.6784 2.72119 16.2584 3.82826Z" fill="white" stroke="#4B4B4B" stroke-width="1.4"/>
</svg>