<svg width="112" height="112" viewBox="0 0 112 112" fill="none" xmlns="http://www.w3.org/2000/svg">
<path d="M89 55C89 46.2479 85.5232 37.8542 79.3345 31.6655C73.1458 25.4768 64.7521 22 56 22C47.2479 22 38.8542 25.4768 32.6655 31.6655C26.4768 37.8542 23 46.2479 23 55L56 55H89Z" fill="#EBEBEB"/>
<g filter="url(#filter0_d_1231_6261)">
<circle cx="56" cy="55" r="21" fill="white"/>
</g>
<path d="M56.8521 51.3324L56.8528 51.3336L58.1728 53.9736C58.3073 54.2427 58.5335 54.4794 58.77 54.6544C59.0047 54.8281 59.2983 54.9773 59.6011 55.0238L61.9862 55.4229C61.9864 55.423 61.9866 55.423 61.9868 55.4231C62.6672 55.5388 62.9145 55.81 62.9754 55.9987C63.0359 56.1858 62.9953 56.5476 62.5064 57.0365L62.5055 57.0374L60.6464 58.9065C60.6463 58.9065 60.6463 58.9066 60.6462 58.9067C60.4167 59.1363 60.2589 59.4482 60.1709 59.7523C60.0828 60.0569 60.049 60.4078 60.1224 60.7308L60.1226 60.7318L60.6526 63.0418L60.6528 63.0424C60.8527 63.909 60.6595 64.2575 60.526 64.3552C60.3922 64.4531 60.001 64.5317 59.2347 64.0798C59.2345 64.0796 59.2343 64.0795 59.2341 64.0794L56.9952 62.7501L56.9952 62.7501L56.9926 62.7485C56.6936 62.5735 56.3337 62.5 56 62.5C55.6663 62.5 55.3064 62.5735 55.0074 62.7485L55.007 62.7487L52.757 64.0687L52.7559 64.0694C51.9892 64.5218 51.5977 64.4431 51.464 64.3452C51.3304 64.2475 51.1372 63.899 51.3372 63.0324L51.3373 63.0318L51.867 60.7233C51.867 60.723 51.8671 60.7227 51.8672 60.7225C51.9415 60.4021 51.9066 60.0526 51.819 59.7498C51.7311 59.4459 51.5743 59.1346 51.3491 58.9021L51.3491 58.9021L51.3435 58.8965L49.4935 57.0465C49.0055 56.5584 48.9637 56.1938 49.0246 56.0046C49.0856 55.8153 49.3323 55.5443 50.0106 55.4335L50.0106 55.4335L50.0125 55.4332L52.4025 55.0332L52.4025 55.0332L52.4062 55.0325C52.7017 54.9808 52.9921 54.8352 53.2283 54.6619C53.4639 54.489 53.6917 54.2547 53.8272 53.9836L55.1472 51.3436L55.1472 51.3436L55.1484 51.3411C55.4671 50.6949 55.8066 50.5393 56.0013 50.5388C56.1955 50.5382 56.534 50.6916 56.8521 51.3324Z" fill="#FBCD7E" stroke="#4B4B4B"/>
<path d="M50 52.25C49.8661 52.25 49.75 52.1339 49.75 52V45C49.75 44.8661 49.8661 44.75 50 44.75C50.1339 44.75 50.25 44.8661 50.25 45V52C50.25 52.1339 50.1339 52.25 50 52.25Z" fill="#FBCD7E" stroke="#4B4B4B"/>
<path d="M62 52.25C61.8661 52.25 61.75 52.1339 61.75 52V45C61.75 44.8661 61.8661 44.75 62 44.75C62.1339 44.75 62.25 44.8661 62.25 45V52C62.25 52.1339 62.1339 52.25 62 52.25Z" fill="#FBCD7E" stroke="#4B4B4B"/>
<path d="M56 47.25C55.8661 47.25 55.75 47.1339 55.75 47V45C55.75 44.8661 55.8661 44.75 56 44.75C56.1339 44.75 56.25 44.8661 56.25 45V47C56.25 47.1339 56.1339 47.25 56 47.25Z" fill="#FBCD7E" stroke="#4B4B4B"/>
<defs>
<filter id="filter0_d_1231_6261" x="0" y="0" width="112" height="112" filterUnits="userSpaceOnUse" color-interpolation-filters="sRGB">
<feFlood flood-opacity="0" result="BackgroundImageFix"/>
<feColorMatrix in="SourceAlpha" type="matrix" values="0 0 0 0 0 0 0 0 0 0 0 0 0 0 0 0 0 0 127 0" result="hardAlpha"/>
<feOffset dy="1"/>
<feGaussianBlur stdDeviation="17.5"/>
<feComposite in2="hardAlpha" operator="out"/>
<feColorMatrix type="matrix" values="0 0 0 0 0 0 0 0 0 0 0 0 0 0 0 0 0 0 0.18 0"/>
<feBlend mode="normal" in2="BackgroundImageFix" result="effect1_dropShadow_1231_6261"/>
<feBlend mode="normal" in="SourceGraphic" in2="effect1_dropShadow_1231_6261" result="shape"/>
</filter>
</defs>
</svg>
