<svg xmlns="http://www.w3.org/2000/svg" width="24" height="24" viewBox="0 0 24 24" fill="none">
  <path d="M1.5 11.25V18.75C1.5 19.575 2.175 20.25 3 20.25H21C21.825 20.25 22.5 19.575 22.5 18.75V11.25H1.5Z" fill="white"/>
  <path d="M23.25 10.5H21V5.25C21 3.59588 19.6541 2.25 18 2.25C16.3459 2.25 15 3.59588 15 5.25V6C14.586 6 14.25 6.336 14.25 6.75C14.25 7.164 14.586 7.5 15 7.5H16.5C16.914 7.5 17.25 7.164 17.25 6.75C17.25 6.336 16.914 6 16.5 6V5.25C16.5 4.42275 17.1728 3.75 18 3.75C18.8272 3.75 19.5 4.42275 19.5 5.25V10.5H0.75C0.336 10.5 0 10.836 0 11.25C0 11.664 0.336 12 0.75 12V18.75C0.75 19.9909 1.75912 21 3 21C3 21.414 3.336 21.75 3.75 21.75C4.164 21.75 4.5 21.414 4.5 21H19.5C19.5 21.414 19.836 21.75 20.25 21.75C20.664 21.75 21 21.414 21 21C22.2409 21 23.25 19.9909 23.25 18.75V12C23.664 12 24 11.664 24 11.25C24 10.836 23.664 10.5 23.25 10.5ZM21.75 18.75C21.75 19.1636 21.4136 19.5 21 19.5H3C2.58637 19.5 2.25 19.1636 2.25 18.75V12H21.75V18.75Z" fill="#4B4B4B"/>
</svg>