<svg xmlns="http://www.w3.org/2000/svg" width="24" height="24" viewBox="0 0 24 24" fill="none">
  <g clip-path="url(#clip0_8_751)">
    <path d="M2.25 0.75H21.75V23.25H2.25V0.75Z" fill="#DDB26E"/>
    <path d="M12 0.75H21.75V23.25H12V0.75Z" fill="white"/>
    <path d="M21.75 0H2.25C2.05109 0 1.86032 0.0790176 1.71967 0.21967C1.57902 0.360322 1.5 0.551088 1.5 0.75V23.25C1.5 23.4489 1.57902 23.6397 1.71967 23.7803C1.86032 23.921 2.05109 24 2.25 24H21.75C21.9489 24 22.1397 23.921 22.2803 23.7803C22.421 23.6397 22.5 23.4489 22.5 23.25V0.75C22.5 0.551088 22.421 0.360322 22.2803 0.21967C22.1397 0.0790176 21.9489 0 21.75 0ZM3 1.5H11.25V22.5H3V1.5ZM21 22.5H12.75V1.5H21V22.5Z" fill="#4B4B4B"/>
    <path d="M14.25 21.75H19.5C19.6989 21.75 19.8897 21.671 20.0303 21.5303C20.171 21.3897 20.25 21.1989 20.25 21V3C20.25 2.80109 20.171 2.61032 20.0303 2.46967C19.8897 2.32902 19.6989 2.25 19.5 2.25H14.25C14.0511 2.25 13.8603 2.32902 13.7197 2.46967C13.579 2.61032 13.5 2.80109 13.5 3C13.5 3.19891 13.579 3.38968 13.7197 3.53033C13.8603 3.67098 14.0511 3.75 14.25 3.75H18.75V20.25H14.25C14.0511 20.25 13.8603 20.329 13.7197 20.4697C13.579 20.6103 13.5 20.8011 13.5 21C13.5 21.1989 13.579 21.3897 13.7197 21.5303C13.8603 21.671 14.0511 21.75 14.25 21.75ZM9.75 2.25H4.5C4.30109 2.25 4.11032 2.32902 3.96967 2.46967C3.82902 2.61032 3.75 2.80109 3.75 3V21C3.75 21.1989 3.82902 21.3897 3.96967 21.5303C4.11032 21.671 4.30109 21.75 4.5 21.75H9.75C9.94891 21.75 10.1397 21.671 10.2803 21.5303C10.421 21.3897 10.5 21.1989 10.5 21C10.5 20.8011 10.421 20.6103 10.2803 20.4697C10.1397 20.329 9.94891 20.25 9.75 20.25H5.25V3.75H9.75C9.94891 3.75 10.1397 3.67098 10.2803 3.53033C10.421 3.38968 10.5 3.19891 10.5 3C10.5 2.80109 10.421 2.61032 10.2803 2.46967C10.1397 2.32902 9.94891 2.25 9.75 2.25Z" fill="#4B4B4B"/>
    <path d="M13.5 13.5C13.5 13.6989 13.579 13.8897 13.7197 14.0303C13.8603 14.171 14.0511 14.25 14.25 14.25H15.75C15.9489 14.25 16.1397 14.171 16.2803 14.0303C16.421 13.8897 16.5 13.6989 16.5 13.5C16.5 13.3011 16.421 13.1103 16.2803 12.9697C16.1397 12.829 15.9489 12.75 15.75 12.75V11.25C15.9489 11.25 16.1397 11.171 16.2803 11.0303C16.421 10.8897 16.5 10.6989 16.5 10.5C16.5 10.3011 16.421 10.1103 16.2803 9.96967C16.1397 9.82902 15.9489 9.75 15.75 9.75H14.25C14.0511 9.75 13.8603 9.82902 13.7197 9.96967C13.579 10.1103 13.5 10.3011 13.5 10.5C13.5 10.6989 13.579 10.8897 13.7197 11.0303C13.8603 11.171 14.0511 11.25 14.25 11.25V12.75C14.0511 12.75 13.8603 12.829 13.7197 12.9697C13.579 13.1103 13.5 13.3011 13.5 13.5ZM10.5 10.5C10.5 10.3011 10.421 10.1103 10.2803 9.96967C10.1397 9.82902 9.94891 9.75 9.75 9.75H8.25C8.05109 9.75 7.86032 9.82902 7.71967 9.96967C7.57902 10.1103 7.5 10.3011 7.5 10.5C7.5 10.6989 7.57902 10.8897 7.71967 11.0303C7.86032 11.171 8.05109 11.25 8.25 11.25V12.75C8.05109 12.75 7.86032 12.829 7.71967 12.9697C7.57902 13.1103 7.5 13.3011 7.5 13.5C7.5 13.6989 7.57902 13.8897 7.71967 14.0303C7.86032 14.171 8.05109 14.25 8.25 14.25H9.75C9.94891 14.25 10.1397 14.171 10.2803 14.0303C10.421 13.8897 10.5 13.6989 10.5 13.5C10.5 13.3011 10.421 13.1103 10.2803 12.9697C10.1397 12.829 9.94891 12.75 9.75 12.75V11.25C9.94891 11.25 10.1397 11.171 10.2803 11.0303C10.421 10.8897 10.5 10.6989 10.5 10.5Z" fill="#4B4B4B"/>
  </g>
  <defs>
    <clipPath id="clip0_8_751">
      <rect width="24" height="24" fill="white"/>
    </clipPath>
  </defs>
</svg>