<svg xmlns="http://www.w3.org/2000/svg" width="24" height="24" viewBox="0 0 24 24" fill="none">
  <path d="M12 15C15.7279 15 18.75 12.0899 18.75 8.5C18.75 4.91015 15.7279 2 12 2C8.27208 2 5.25 4.91015 5.25 8.5C5.25 12.0899 8.27208 15 12 15Z" fill="white"/>
  <path d="M15.79 15.61C16.12 15.44 16.5 15.69 16.5 16.06V20.91C16.5 21.81 15.87 22.25 15.09 21.88L12.41 20.61C12.18 20.51 11.82 20.51 11.59 20.61L8.91 21.88C8.13 22.24 7.5 21.8 7.5 20.9L7.52 16.06C7.52 15.69 7.91 15.45 8.23 15.61C9.36 16.18 10.64 16.5 12 16.5C13.36 16.5 14.65 16.18 15.79 15.61Z" fill="white"/>
</svg>