<svg xmlns="http://www.w3.org/2000/svg" width="20" height="20" viewBox="0 0 20 20" fill="none">
  <path d="M13.4582 2.96669V3.42253L13.9121 3.46456C14.9439 3.56009 15.6557 3.90844 16.1297 4.41161C16.5894 4.89963 16.8704 5.58124 16.959 6.45002H3.04073C3.1293 5.58124 3.41036 4.89963 3.87007 4.41161C4.34404 3.90844 5.05585 3.56009 6.08763 3.46456L6.54153 3.42253V2.96669V1.66669C6.54153 1.63654 6.55382 1.60526 6.57946 1.57962C6.6051 1.55397 6.63638 1.54169 6.66653 1.54169C6.69668 1.54169 6.72796 1.55397 6.7536 1.57962C6.77925 1.60526 6.79153 1.63654 6.79153 1.66669V2.91669V3.41669H7.29153H12.7082H13.2082V2.91669V1.66669C13.2082 1.63654 13.2205 1.60526 13.2461 1.57962C13.2718 1.55397 13.3031 1.54169 13.3332 1.54169C13.3633 1.54169 13.3946 1.55397 13.4203 1.57962C13.4459 1.60526 13.4582 1.63654 13.4582 1.66669V2.96669ZM8.00948 15.5467L8.02428 15.5333L8.03798 15.5189C8.26998 15.274 8.41667 14.9364 8.41667 14.5833C8.41667 14.2303 8.26998 13.8927 8.03798 13.6478L8.02428 13.6334L8.00948 13.62C7.88566 13.5086 7.74625 13.4193 7.59231 13.3551C7.26923 13.2205 6.89744 13.2205 6.57436 13.3551C6.42042 13.4193 6.28101 13.5086 6.15718 13.62L6.14238 13.6334L6.12869 13.6478C5.89669 13.8927 5.75 14.2303 5.75 14.5833C5.75 14.9364 5.89668 15.274 6.12869 15.5189L6.14238 15.5333L6.15718 15.5467C6.28101 15.6581 6.42042 15.7474 6.57436 15.8116C6.7255 15.8745 6.89915 15.9167 7.08333 15.9167C7.26752 15.9167 7.44116 15.8745 7.59231 15.8116C7.74625 15.7474 7.88566 15.6581 8.00948 15.5467ZM8.00948 12.63L8.02904 12.6124L8.04665 12.5928C8.15809 12.469 8.2474 12.3296 8.31154 12.1757C8.37452 12.0245 8.41667 11.8509 8.41667 11.6667C8.41667 11.4825 8.37451 11.3088 8.31154 11.1577C8.2474 11.0038 8.15809 10.8644 8.04665 10.7405L8.02904 10.721L8.00948 10.7034C7.88566 10.5919 7.74625 10.5026 7.59231 10.4385L7.4 10.9L7.59231 10.4385C7.26923 10.3039 6.89744 10.3039 6.57436 10.4385L6.76667 10.9L6.57436 10.4385C6.42042 10.5026 6.28101 10.5919 6.15718 10.7034L6.13762 10.721L6.12002 10.7405C6.00858 10.8644 5.91927 11.0038 5.85513 11.1577C5.79215 11.3088 5.75 11.4825 5.75 11.6667C5.75 11.8509 5.79215 12.0245 5.85513 12.1757C5.91927 12.3296 6.00858 12.469 6.12002 12.5928L6.13762 12.6124L6.15718 12.63C6.28101 12.7414 6.42042 12.8307 6.57436 12.8949C6.7255 12.9579 6.89915 13 7.08333 13C7.26752 13 7.44116 12.9579 7.59231 12.8949C7.74625 12.8307 7.88566 12.7414 8.00948 12.63ZM10.9261 12.63L10.9409 12.6167L10.9546 12.6022C11.1866 12.3573 11.3333 12.0197 11.3333 11.6667C11.3333 11.3136 11.1866 10.976 10.9546 10.7311L10.9409 10.7167L10.9261 10.7034C10.8044 10.5938 10.6677 10.5057 10.5168 10.4418C10.1892 10.2944 9.81085 10.2944 9.48316 10.4418C9.33233 10.5057 9.19556 10.5938 9.07385 10.7034L9.05905 10.7167L9.04536 10.7311C8.81335 10.976 8.66667 11.3136 8.66667 11.6667C8.66667 12.0197 8.81335 12.3573 9.04536 12.6022L9.05905 12.6167L9.07385 12.63C9.19768 12.7414 9.33709 12.8307 9.49102 12.8949C9.64217 12.9579 9.81581 13 10 13C10.1842 13 10.3578 12.9579 10.509 12.8949L10.3167 12.4333L10.509 12.8949C10.6629 12.8307 10.8023 12.7414 10.9261 12.63ZM3.33333 8.70001H16.6667C16.8489 8.70001 17 8.85115 17 9.03335V14.1667C17 15.34 16.7066 16.2414 16.144 16.8473C15.5877 17.4464 14.6964 17.8333 13.3333 17.8333H6.66667C5.30363 17.8333 4.41232 17.4464 3.85598 16.8473C3.29341 16.2414 3 15.34 3 14.1667V9.03335C3 8.85115 3.15114 8.70001 3.33333 8.70001Z" fill="#FBCD7E" stroke="#4B4B4B"/>
</svg>