<svg xmlns="http://www.w3.org/2000/svg" width="34" height="34" viewBox="0 0 34 34" fill="none">
  <mask id="path-1-outside-1_348_2048" maskUnits="userSpaceOnUse" x="1.83467" y="1.21501" width="30.7557" height="30.7557" fill="black">
    <rect fill="white" x="1.83467" y="1.21501" width="30.7557" height="30.7557"/>
    <path fill-rule="evenodd" clip-rule="evenodd" d="M23.5614 10.9505L22.5728 11.4327C22.438 11.4985 22.3163 11.5912 22.208 11.6886L15.5354 9.39163C15.6949 8.62395 15.2688 7.84159 14.5109 7.5882L13.4679 7.22916C12.679 6.95758 11.7443 7.41357 11.4637 8.2069L11.1046 9.24992C10.8469 9.99875 11.2011 10.8162 11.9044 11.163L9.60744 17.8356C9.46407 17.861 9.31611 17.8998 9.18129 17.9656L8.19266 18.4479C7.41074 18.8294 7.08392 19.7788 7.46537 20.5607L7.94767 21.5493C8.32911 22.3312 9.27853 22.6581 10.0604 22.2766L11.0491 21.7943C11.831 21.4129 12.1578 20.4635 11.7764 19.6815L11.2941 18.6929C11.2283 18.5581 11.1356 18.4364 11.0382 18.3281L13.3352 11.6555C13.6699 11.7258 14.0237 11.6756 14.3293 11.5266C14.6349 11.3775 14.8879 11.1206 15.0474 10.8091L21.7201 13.106C21.7455 13.2494 21.7843 13.3973 21.8501 13.5322L22.3324 14.5208C22.7138 15.3027 23.6632 15.6295 24.4452 15.2481L25.4338 14.7658C26.2157 14.3843 26.5425 13.4349 26.1611 12.653L25.6788 11.6644C25.2794 10.8912 24.3433 10.569 23.5614 10.9505ZM22.3647 19.4452L21.5265 21.4674L17.6978 23.3352L15.588 22.7511C14.3922 22.4666 14.1292 21.9273 14.3729 20.7848L15.3656 16.2282C15.4357 15.9159 15.5679 15.6622 15.7621 15.4673C15.9653 15.2681 16.226 15.1409 16.5171 15.099C16.7812 15.0703 17.0625 15.1223 17.3608 15.2549L21.563 17.2772C22.609 17.7794 22.832 18.3048 22.3647 19.4452ZM20.2153 26.5576L22.5431 25.4221C23.4239 24.9924 23.7012 24.0783 23.1488 23.402L22.2607 22.2886C22.075 22.0677 21.776 22.0022 21.5244 22.1249L18.2439 23.7253C17.9922 23.848 17.8509 24.1284 17.9197 24.4063L18.2505 25.7915C18.4395 26.5895 19.3885 26.961 20.2153 26.5576Z"/>
  </mask>
  <path fill-rule="evenodd" clip-rule="evenodd" d="M23.5614 10.9505L22.5728 11.4327C22.438 11.4985 22.3163 11.5912 22.208 11.6886L15.5354 9.39163C15.6949 8.62395 15.2688 7.84159 14.5109 7.5882L13.4679 7.22916C12.679 6.95758 11.7443 7.41357 11.4637 8.2069L11.1046 9.24992C10.8469 9.99875 11.2011 10.8162 11.9044 11.163L9.60744 17.8356C9.46407 17.861 9.31611 17.8998 9.18129 17.9656L8.19266 18.4479C7.41074 18.8294 7.08392 19.7788 7.46537 20.5607L7.94767 21.5493C8.32911 22.3312 9.27853 22.6581 10.0604 22.2766L11.0491 21.7943C11.831 21.4129 12.1578 20.4635 11.7764 19.6815L11.2941 18.6929C11.2283 18.5581 11.1356 18.4364 11.0382 18.3281L13.3352 11.6555C13.6699 11.7258 14.0237 11.6756 14.3293 11.5266C14.6349 11.3775 14.8879 11.1206 15.0474 10.8091L21.7201 13.106C21.7455 13.2494 21.7843 13.3973 21.8501 13.5322L22.3324 14.5208C22.7138 15.3027 23.6632 15.6295 24.4452 15.2481L25.4338 14.7658C26.2157 14.3843 26.5425 13.4349 26.1611 12.653L25.6788 11.6644C25.2794 10.8912 24.3433 10.569 23.5614 10.9505ZM22.3647 19.4452L21.5265 21.4674L17.6978 23.3352L15.588 22.7511C14.3922 22.4666 14.1292 21.9273 14.3729 20.7848L15.3656 16.2282C15.4357 15.9159 15.5679 15.6622 15.7621 15.4673C15.9653 15.2681 16.226 15.1409 16.5171 15.099C16.7812 15.0703 17.0625 15.1223 17.3608 15.2549L21.563 17.2772C22.609 17.7794 22.832 18.3048 22.3647 19.4452ZM20.2153 26.5576L22.5431 25.4221C23.4239 24.9924 23.7012 24.0783 23.1488 23.402L22.2607 22.2886C22.075 22.0677 21.776 22.0022 21.5244 22.1249L18.2439 23.7253C17.9922 23.848 17.8509 24.1284 17.9197 24.4063L18.2505 25.7915C18.4395 26.5895 19.3885 26.961 20.2153 26.5576Z" fill="#FBCD7E"/>
  <path d="M22.208 11.6886L21.8825 12.6341L22.4389 12.8256L22.8765 12.4323L22.208 11.6886ZM15.5354 9.39163L14.5563 9.18813L14.377 10.0505L15.2099 10.3372L15.5354 9.39163ZM14.5109 7.5882L14.1854 8.53379L14.1938 8.53659L14.5109 7.5882ZM13.4679 7.22916L13.1424 8.17471L13.1424 8.17471L13.4679 7.22916ZM11.4637 8.2069L10.5209 7.87347L10.5181 7.88141L11.4637 8.2069ZM11.1046 9.24992L12.0502 9.57541L12.0502 9.57541L11.1046 9.24992ZM11.9044 11.163L12.8499 11.4884L13.1366 10.6556L12.3466 10.2661L11.9044 11.163ZM9.60744 17.8356L9.78211 18.8202L10.3615 18.7175L10.553 18.1611L9.60744 17.8356ZM11.0382 18.3281L10.0927 18.0027L9.90118 18.559L10.2945 18.9966L11.0382 18.3281ZM13.3352 11.6555L13.5409 10.6769L12.677 10.4953L12.3896 11.33L13.3352 11.6555ZM15.0474 10.8091L15.3729 9.86352L14.5529 9.58123L14.1574 10.3531L15.0474 10.8091ZM21.7201 13.106L22.7047 12.9313L22.6019 12.352L22.0456 12.1605L21.7201 13.106ZM25.6788 11.6644L26.5775 11.2259L26.5725 11.2156L26.5672 11.2054L25.6788 11.6644ZM21.5265 21.4674L21.9649 22.3662L22.3052 22.2002L22.4502 21.8504L21.5265 21.4674ZM22.3647 19.4452L23.2885 19.8281L23.29 19.8244L22.3647 19.4452ZM17.6978 23.3352L17.4309 24.299L17.7959 24.4L18.1362 24.234L17.6978 23.3352ZM15.588 22.7511L15.8549 21.7873L15.8373 21.7825L15.8195 21.7782L15.588 22.7511ZM14.3729 20.7848L13.3958 20.5719L13.3949 20.5762L14.3729 20.7848ZM15.3656 16.2282L14.3899 16.0091L14.3885 16.0154L15.3656 16.2282ZM15.7621 15.4673L15.0619 14.7533L15.0538 14.7614L15.7621 15.4673ZM16.5171 15.099L16.409 14.1049L16.3918 14.1068L16.3747 14.1092L16.5171 15.099ZM17.3608 15.2549L17.7945 14.3538L17.7808 14.3472L17.767 14.3411L17.3608 15.2549ZM21.563 17.2772L21.1293 18.1783L21.1302 18.1787L21.563 17.2772ZM23.1488 23.402L22.3669 24.0256L22.3743 24.0346L23.1488 23.402ZM22.2607 22.2886L23.0425 21.6651L23.0345 21.6551L23.0263 21.6453L22.2607 22.2886ZM17.9197 24.4063L18.8924 24.174L18.8904 24.166L17.9197 24.4063ZM18.2505 25.7915L19.2236 25.5611L19.2232 25.5592L18.2505 25.7915ZM23.0112 12.3315L23.9998 11.8492L23.123 10.0517L22.1343 10.534L23.0112 12.3315ZM22.8765 12.4323C22.9474 12.3686 22.9911 12.3413 23.0112 12.3315L22.1343 10.534C21.8848 10.6557 21.6852 10.8139 21.5395 10.9449L22.8765 12.4323ZM15.2099 10.3372L21.8825 12.6341L22.5335 10.743L15.8608 8.44609L15.2099 10.3372ZM14.1938 8.53659C14.4536 8.62344 14.6165 8.8985 14.5563 9.18813L16.5144 9.59514C16.7734 8.3494 16.084 7.05975 14.828 6.63981L14.1938 8.53659ZM13.1424 8.17471L14.1854 8.53375L14.8364 6.64266L13.7934 6.28362L13.1424 8.17471ZM12.4065 8.54032C12.5066 8.25712 12.88 8.08438 13.1424 8.17471L13.7934 6.28362C12.4779 5.83078 10.9819 6.57001 10.5209 7.87348L12.4065 8.54032ZM12.0502 9.57541L12.4092 8.53239L10.5181 7.88141L10.1591 8.92443L12.0502 9.57541ZM12.3466 10.2661C12.0801 10.1346 11.9616 9.83266 12.0502 9.57541L10.1591 8.92443C9.73211 10.1649 10.3222 11.4977 11.4621 12.0598L12.3466 10.2661ZM10.553 18.1611L12.8499 11.4884L10.9588 10.8375L8.66189 17.5101L10.553 18.1611ZM9.61974 18.8644C9.63983 18.8546 9.68822 18.8369 9.78211 18.8202L9.43277 16.851C9.23993 16.8852 8.99238 16.9451 8.74285 17.0669L9.61974 18.8644ZM8.63111 19.3467L9.61974 18.8644L8.74285 17.0669L7.75421 17.5491L8.63111 19.3467ZM8.36413 20.1222C8.22483 19.8367 8.34556 19.486 8.63111 19.3467L7.75421 17.5491C6.47592 18.1727 5.94302 19.7208 6.56662 20.9991L8.36413 20.1222ZM8.84642 21.1109L8.36413 20.1222L6.56662 20.9991L7.04891 21.9878L8.84642 21.1109ZM9.622 21.3779C9.33645 21.5172 8.98572 21.3964 8.84642 21.1109L7.04891 21.9878C7.67251 23.2661 9.22061 23.799 10.4989 23.1754L9.622 21.3779ZM10.6106 20.8956L9.622 21.3779L10.4989 23.1754L11.4875 22.6931L10.6106 20.8956ZM10.8776 20.12C11.0169 20.4055 10.8962 20.7563 10.6106 20.8956L11.4875 22.6931C12.7658 22.0695 13.2987 20.5214 12.6751 19.2431L10.8776 20.12ZM10.3953 19.1314L10.8776 20.12L12.6751 19.2431L12.1928 18.2545L10.3953 19.1314ZM10.2945 18.9966C10.3583 19.0675 10.3855 19.1113 10.3953 19.1314L12.1928 18.2545C12.0711 18.0049 11.9129 17.8053 11.782 17.6597L10.2945 18.9966ZM12.3896 11.33L10.0927 18.0027L11.9838 18.6536L14.2807 11.981L12.3896 11.33ZM13.8909 10.6278C13.7739 10.6849 13.6461 10.699 13.5409 10.6769L13.1295 12.6341C13.6938 12.7527 14.2736 12.6664 14.7678 12.4253L13.8909 10.6278ZM14.1574 10.3531C14.089 10.4867 13.9877 10.5806 13.8909 10.6278L14.7678 12.4253C15.2821 12.1744 15.6867 11.7545 15.9374 11.265L14.1574 10.3531ZM22.0456 12.1605L15.3729 9.86352L14.7219 11.7546L21.3946 14.0516L22.0456 12.1605ZM22.7488 13.0937C22.739 13.0736 22.7214 13.0252 22.7047 12.9313L20.7355 13.2807C20.7697 13.4735 20.8296 13.7211 20.9513 13.9706L22.7488 13.0937ZM23.2311 14.0823L22.7488 13.0937L20.9513 13.9706L21.4336 14.9592L23.2311 14.0823ZM24.0067 14.3493C23.7212 14.4886 23.3704 14.3679 23.2311 14.0823L21.4336 14.9592C22.0572 16.2375 23.6053 16.7704 24.8836 16.1468L24.0067 14.3493ZM24.9953 13.867L24.0067 14.3493L24.8836 16.1468L25.8722 15.6645L24.9953 13.867ZM25.2623 13.0914C25.4016 13.377 25.2809 13.7277 24.9953 13.867L25.8722 15.6645C27.1505 15.0409 27.6834 13.4928 27.0598 12.2146L25.2623 13.0914ZM24.78 12.1028L25.2623 13.0914L27.0598 12.2146L26.5775 11.2259L24.78 12.1028ZM23.9998 11.8492C24.2816 11.7118 24.6342 11.8211 24.7903 12.1234L26.5672 11.2054C25.9245 9.96133 24.4051 9.42624 23.123 10.0517L23.9998 11.8492ZM22.4502 21.8504L23.2885 19.8281L21.4409 19.0623L20.6027 21.0845L22.4502 21.8504ZM18.1362 24.234L21.9649 22.3662L21.088 20.5687L17.2593 22.4365L18.1362 24.234ZM15.3212 23.7148L17.4309 24.299L17.9646 22.3715L15.8549 21.7873L15.3212 23.7148ZM13.3949 20.5762C13.2618 21.2003 13.1939 21.9445 13.5794 22.5978C13.9752 23.2688 14.6778 23.5624 15.3566 23.7239L15.8195 21.7782C15.3025 21.6552 15.2756 21.537 15.3019 21.5816C15.3178 21.6085 15.2403 21.5118 15.3509 20.9934L13.3949 20.5762ZM14.3885 16.0154L13.3958 20.5719L15.35 20.9977L16.3427 16.4411L14.3885 16.0154ZM15.0538 14.7614C14.7057 15.1108 14.4945 15.5432 14.3899 16.0092L16.3413 16.4473C16.377 16.2885 16.4301 16.2137 16.4704 16.1732L15.0538 14.7614ZM16.3747 14.1092C15.8806 14.1803 15.4224 14.3999 15.062 14.7533L16.4623 16.1813C16.5083 16.1362 16.5714 16.1015 16.6595 16.0888L16.3747 14.1092ZM17.767 14.3411C17.344 14.1531 16.8847 14.0532 16.409 14.1049L16.6252 16.0932C16.6778 16.0875 16.7809 16.0915 16.9547 16.1687L17.767 14.3411ZM21.9966 16.3761L17.7945 14.3538L16.9272 16.156L21.1293 18.1783L21.9966 16.3761ZM23.29 19.8244C23.5467 19.198 23.7352 18.4739 23.466 17.7663C23.1952 17.0546 22.5733 16.653 21.9957 16.3757L21.1302 18.1787C21.5987 18.4036 21.6113 18.5159 21.5967 18.4775C21.5837 18.4432 21.65 18.5521 21.4394 19.066L23.29 19.8244ZM22.1047 24.5233L19.7769 25.6589L20.6538 27.4564L22.9816 26.3208L22.1047 24.5233ZM22.3743 24.0346C22.415 24.0844 22.4269 24.1208 22.4309 24.1408C22.435 24.1613 22.4351 24.1853 22.4258 24.2163C22.4075 24.2771 22.3335 24.4117 22.1047 24.5233L22.9816 26.3208C23.6335 26.0028 24.1385 25.4654 24.341 24.7926C24.5485 24.1029 24.4066 23.3611 23.9232 22.7694L22.3743 24.0346ZM21.4789 22.9122L22.367 24.0256L23.9305 22.7784L23.0425 21.6651L21.4789 22.9122ZM21.9628 23.0237C21.7886 23.1086 21.5949 23.0508 21.4951 22.932L23.0263 21.6453C22.5551 21.0846 21.7634 20.8957 21.0859 21.2262L21.9628 23.0237ZM18.6823 24.624L21.9628 23.0237L21.0859 21.2262L17.8054 22.8265L18.6823 24.624ZM18.8904 24.166C18.9406 24.3686 18.8329 24.5506 18.6823 24.624L17.8054 22.8265C17.1516 23.1455 16.7612 23.8882 16.949 24.6467L18.8904 24.166ZM19.2232 25.5592L18.8923 24.1741L16.9471 24.6386L17.2779 26.0238L19.2232 25.5592ZM19.7769 25.6589C19.6087 25.7409 19.4555 25.7318 19.3574 25.6936C19.2643 25.6572 19.2342 25.6057 19.2236 25.5611L17.2774 26.022C17.6475 27.5846 19.3888 28.0735 20.6538 27.4564L19.7769 25.6589Z" fill="#4B4B4B" mask="url(#path-1-outside-1_348_2048)"/>
</svg>