<svg width="116" height="116" viewBox="0 0 116 116" fill="none" xmlns="http://www.w3.org/2000/svg">
<circle cx="58" cy="57" r="32" fill="#EBEBEB"/>
<g filter="url(#filter0_d_0_1)">
<circle cx="58" cy="57" r="23" fill="white"/>
</g>
<mask id="path-3-outside-1_0_1" maskUnits="userSpaceOnUse" x="42.8347" y="41.215" width="30.7557" height="30.7557" fill="black">
<rect fill="white" x="42.8347" y="41.215" width="30.7557" height="30.7557"/>
<path fill-rule="evenodd" clip-rule="evenodd" d="M64.5614 50.9505L63.5728 51.4327C63.438 51.4985 63.3163 51.5912 63.208 51.6886L56.5354 49.3916C56.6949 48.6239 56.2688 47.8416 55.5109 47.5882L54.4679 47.2292C53.679 46.9576 52.7443 47.4136 52.4637 48.2069L52.1046 49.2499C51.8469 49.9988 52.2011 50.8162 52.9044 51.163L50.6074 57.8356C50.4641 57.861 50.3161 57.8998 50.1813 57.9656L49.1927 58.4479C48.4107 58.8294 48.0839 59.7788 48.4654 60.5607L48.9477 61.5493C49.3291 62.3312 50.2785 62.6581 51.0604 62.2766L52.0491 61.7943C52.831 61.4129 53.1578 60.4635 52.7764 59.6815L52.2941 58.6929C52.2283 58.5581 52.1356 58.4364 52.0382 58.3281L54.3352 51.6555C54.6699 51.7258 55.0237 51.6756 55.3293 51.5266C55.6349 51.3775 55.8879 51.1206 56.0474 50.8091L62.7201 53.106C62.7455 53.2494 62.7843 53.3973 62.8501 53.5322L63.3324 54.5208C63.7138 55.3027 64.6632 55.6295 65.4452 55.2481L66.4338 54.7658C67.2157 54.3843 67.5425 53.4349 67.1611 52.653L66.6788 51.6644C66.2794 50.8912 65.3433 50.569 64.5614 50.9505ZM63.3647 59.4452L62.5265 61.4674L58.6978 63.3352L56.588 62.7511C55.3922 62.4666 55.1292 61.9273 55.3729 60.7848L56.3656 56.2282C56.4357 55.9159 56.5679 55.6622 56.7621 55.4673C56.9653 55.2681 57.226 55.1409 57.5171 55.099C57.7812 55.0703 58.0625 55.1223 58.3608 55.2549L62.563 57.2772C63.609 57.7794 63.832 58.3048 63.3647 59.4452ZM61.2153 66.5576L63.5431 65.4221C64.4239 64.9924 64.7012 64.0783 64.1488 63.402L63.2607 62.2886C63.075 62.0677 62.776 62.0022 62.5244 62.1249L59.2439 63.7253C58.9922 63.848 58.8509 64.1284 58.9197 64.4063L59.2505 65.7915C59.4395 66.5895 60.3885 66.961 61.2153 66.5576Z"/>
</mask>
<path fill-rule="evenodd" clip-rule="evenodd" d="M64.5614 50.9505L63.5728 51.4327C63.438 51.4985 63.3163 51.5912 63.208 51.6886L56.5354 49.3916C56.6949 48.6239 56.2688 47.8416 55.5109 47.5882L54.4679 47.2292C53.679 46.9576 52.7443 47.4136 52.4637 48.2069L52.1046 49.2499C51.8469 49.9988 52.2011 50.8162 52.9044 51.163L50.6074 57.8356C50.4641 57.861 50.3161 57.8998 50.1813 57.9656L49.1927 58.4479C48.4107 58.8294 48.0839 59.7788 48.4654 60.5607L48.9477 61.5493C49.3291 62.3312 50.2785 62.6581 51.0604 62.2766L52.0491 61.7943C52.831 61.4129 53.1578 60.4635 52.7764 59.6815L52.2941 58.6929C52.2283 58.5581 52.1356 58.4364 52.0382 58.3281L54.3352 51.6555C54.6699 51.7258 55.0237 51.6756 55.3293 51.5266C55.6349 51.3775 55.8879 51.1206 56.0474 50.8091L62.7201 53.106C62.7455 53.2494 62.7843 53.3973 62.8501 53.5322L63.3324 54.5208C63.7138 55.3027 64.6632 55.6295 65.4452 55.2481L66.4338 54.7658C67.2157 54.3843 67.5425 53.4349 67.1611 52.653L66.6788 51.6644C66.2794 50.8912 65.3433 50.569 64.5614 50.9505ZM63.3647 59.4452L62.5265 61.4674L58.6978 63.3352L56.588 62.7511C55.3922 62.4666 55.1292 61.9273 55.3729 60.7848L56.3656 56.2282C56.4357 55.9159 56.5679 55.6622 56.7621 55.4673C56.9653 55.2681 57.226 55.1409 57.5171 55.099C57.7812 55.0703 58.0625 55.1223 58.3608 55.2549L62.563 57.2772C63.609 57.7794 63.832 58.3048 63.3647 59.4452ZM61.2153 66.5576L63.5431 65.4221C64.4239 64.9924 64.7012 64.0783 64.1488 63.402L63.2607 62.2886C63.075 62.0677 62.776 62.0022 62.5244 62.1249L59.2439 63.7253C58.9922 63.848 58.8509 64.1284 58.9197 64.4063L59.2505 65.7915C59.4395 66.5895 60.3885 66.961 61.2153 66.5576Z" fill="#FBCD7E"/>
<path d="M63.208 51.6886L62.8825 52.6341L63.4389 52.8256L63.8765 52.4323L63.208 51.6886ZM56.5354 49.3916L55.5563 49.1881L55.377 50.0505L56.2099 50.3372L56.5354 49.3916ZM55.5109 47.5882L55.1854 48.5338L55.1938 48.5366L55.5109 47.5882ZM54.4679 47.2292L54.1424 48.1747L54.1424 48.1747L54.4679 47.2292ZM52.4637 48.2069L51.5209 47.8735L51.5181 47.8814L52.4637 48.2069ZM52.1046 49.2499L53.0502 49.5754L53.0502 49.5754L52.1046 49.2499ZM52.9044 51.163L53.8499 51.4884L54.1366 50.6556L53.3466 50.2661L52.9044 51.163ZM50.6074 57.8356L50.7821 58.8202L51.3615 58.7175L51.553 58.1611L50.6074 57.8356ZM52.0382 58.3281L51.0927 58.0027L50.9012 58.559L51.2945 58.9966L52.0382 58.3281ZM54.3352 51.6555L54.5409 50.6769L53.677 50.4953L53.3896 51.33L54.3352 51.6555ZM56.0474 50.8091L56.3729 49.8635L55.5529 49.5812L55.1574 50.3531L56.0474 50.8091ZM62.7201 53.106L63.7047 52.9313L63.6019 52.352L63.0456 52.1605L62.7201 53.106ZM66.6788 51.6644L67.5775 51.2259L67.5725 51.2156L67.5672 51.2054L66.6788 51.6644ZM62.5265 61.4674L62.9649 62.3662L63.3052 62.2002L63.4502 61.8504L62.5265 61.4674ZM63.3647 59.4452L64.2885 59.8281L64.29 59.8244L63.3647 59.4452ZM58.6978 63.3352L58.4309 64.299L58.7959 64.4L59.1362 64.234L58.6978 63.3352ZM56.588 62.7511L56.8549 61.7873L56.8373 61.7825L56.8195 61.7782L56.588 62.7511ZM55.3729 60.7848L54.3958 60.5719L54.3949 60.5762L55.3729 60.7848ZM56.3656 56.2282L55.3899 56.0091L55.3885 56.0154L56.3656 56.2282ZM56.7621 55.4673L56.0619 54.7533L56.0538 54.7614L56.7621 55.4673ZM57.5171 55.099L57.409 54.1049L57.3918 54.1068L57.3747 54.1092L57.5171 55.099ZM58.3608 55.2549L58.7945 54.3538L58.7808 54.3472L58.767 54.3411L58.3608 55.2549ZM62.563 57.2772L62.1293 58.1783L62.1302 58.1787L62.563 57.2772ZM64.1488 63.402L63.3669 64.0256L63.3743 64.0346L64.1488 63.402ZM63.2607 62.2886L64.0425 61.6651L64.0345 61.6551L64.0263 61.6453L63.2607 62.2886ZM58.9197 64.4063L59.8924 64.174L59.8904 64.166L58.9197 64.4063ZM59.2505 65.7915L60.2236 65.5611L60.2232 65.5592L59.2505 65.7915ZM64.0112 52.3315L64.9998 51.8492L64.123 50.0517L63.1343 50.534L64.0112 52.3315ZM63.8765 52.4323C63.9474 52.3686 63.9911 52.3413 64.0112 52.3315L63.1343 50.534C62.8848 50.6557 62.6852 50.8139 62.5395 50.9449L63.8765 52.4323ZM56.2099 50.3372L62.8825 52.6341L63.5335 50.743L56.8608 48.4461L56.2099 50.3372ZM55.1938 48.5366C55.4536 48.6234 55.6165 48.8985 55.5563 49.1881L57.5144 49.5951C57.7734 48.3494 57.084 47.0597 55.828 46.6398L55.1938 48.5366ZM54.1424 48.1747L55.1854 48.5337L55.8364 46.6427L54.7934 46.2836L54.1424 48.1747ZM53.4065 48.5403C53.5066 48.2571 53.88 48.0844 54.1424 48.1747L54.7934 46.2836C53.4779 45.8308 51.9819 46.57 51.5209 47.8735L53.4065 48.5403ZM53.0502 49.5754L53.4092 48.5324L51.5181 47.8814L51.1591 48.9244L53.0502 49.5754ZM53.3466 50.2661C53.0801 50.1346 52.9616 49.8327 53.0502 49.5754L51.1591 48.9244C50.7321 50.1649 51.3222 51.4977 52.4621 52.0598L53.3466 50.2661ZM51.553 58.1611L53.8499 51.4884L51.9588 50.8375L49.6619 57.5101L51.553 58.1611ZM50.6197 58.8644C50.6398 58.8546 50.6882 58.8369 50.7821 58.8202L50.4328 56.851C50.2399 56.8852 49.9924 56.9451 49.7428 57.0669L50.6197 58.8644ZM49.6311 59.3467L50.6197 58.8644L49.7428 57.0669L48.7542 57.5491L49.6311 59.3467ZM49.3641 60.1222C49.2248 59.8367 49.3456 59.486 49.6311 59.3467L48.7542 57.5491C47.4759 58.1727 46.943 59.7208 47.5666 60.9991L49.3641 60.1222ZM49.8464 61.1109L49.3641 60.1222L47.5666 60.9991L48.0489 61.9878L49.8464 61.1109ZM50.622 61.3779C50.3365 61.5172 49.9857 61.3964 49.8464 61.1109L48.0489 61.9878C48.6725 63.2661 50.2206 63.799 51.4989 63.1754L50.622 61.3779ZM51.6106 60.8956L50.622 61.3779L51.4989 63.1754L52.4875 62.6931L51.6106 60.8956ZM51.8776 60.12C52.0169 60.4055 51.8962 60.7563 51.6106 60.8956L52.4875 62.6931C53.7658 62.0695 54.2987 60.5214 53.6751 59.2431L51.8776 60.12ZM51.3953 59.1314L51.8776 60.12L53.6751 59.2431L53.1928 58.2545L51.3953 59.1314ZM51.2945 58.9966C51.3583 59.0675 51.3855 59.1113 51.3953 59.1314L53.1928 58.2545C53.0711 58.0049 52.9129 57.8053 52.782 57.6597L51.2945 58.9966ZM53.3896 51.33L51.0927 58.0027L52.9838 58.6536L55.2807 51.981L53.3896 51.33ZM54.8909 50.6278C54.7739 50.6849 54.6461 50.699 54.5409 50.6769L54.1295 52.6341C54.6938 52.7527 55.2736 52.6664 55.7678 52.4253L54.8909 50.6278ZM55.1574 50.3531C55.089 50.4867 54.9877 50.5806 54.8909 50.6278L55.7678 52.4253C56.2821 52.1744 56.6867 51.7545 56.9374 51.265L55.1574 50.3531ZM63.0456 52.1605L56.3729 49.8635L55.7219 51.7546L62.3946 54.0516L63.0456 52.1605ZM63.7488 53.0937C63.739 53.0736 63.7214 53.0252 63.7047 52.9313L61.7355 53.2807C61.7697 53.4735 61.8296 53.7211 61.9513 53.9706L63.7488 53.0937ZM64.2311 54.0823L63.7488 53.0937L61.9513 53.9706L62.4336 54.9592L64.2311 54.0823ZM65.0067 54.3493C64.7212 54.4886 64.3704 54.3679 64.2311 54.0823L62.4336 54.9592C63.0572 56.2375 64.6053 56.7704 65.8836 56.1468L65.0067 54.3493ZM65.9953 53.867L65.0067 54.3493L65.8836 56.1468L66.8722 55.6645L65.9953 53.867ZM66.2623 53.0914C66.4016 53.377 66.2809 53.7277 65.9953 53.867L66.8722 55.6645C68.1505 55.0409 68.6834 53.4928 68.0598 52.2146L66.2623 53.0914ZM65.78 52.1028L66.2623 53.0914L68.0598 52.2146L67.5775 51.2259L65.78 52.1028ZM64.9998 51.8492C65.2816 51.7118 65.6342 51.8211 65.7903 52.1234L67.5672 51.2054C66.9245 49.9613 65.4051 49.4262 64.123 50.0517L64.9998 51.8492ZM63.4502 61.8504L64.2885 59.8281L62.4409 59.0623L61.6027 61.0845L63.4502 61.8504ZM59.1362 64.234L62.9649 62.3662L62.088 60.5687L58.2593 62.4365L59.1362 64.234ZM56.3212 63.7148L58.4309 64.299L58.9646 62.3715L56.8549 61.7873L56.3212 63.7148ZM54.3949 60.5762C54.2618 61.2003 54.1939 61.9445 54.5794 62.5978C54.9752 63.2688 55.6778 63.5624 56.3566 63.7239L56.8195 61.7782C56.3025 61.6552 56.2756 61.537 56.3019 61.5816C56.3178 61.6085 56.2403 61.5118 56.3509 60.9934L54.3949 60.5762ZM55.3885 56.0154L54.3958 60.5719L56.35 60.9977L57.3427 56.4411L55.3885 56.0154ZM56.0538 54.7614C55.7057 55.1108 55.4945 55.5432 55.3899 56.0092L57.3413 56.4473C57.377 56.2885 57.4301 56.2137 57.4704 56.1732L56.0538 54.7614ZM57.3747 54.1092C56.8806 54.1803 56.4224 54.3999 56.062 54.7533L57.4623 56.1813C57.5083 56.1362 57.5714 56.1015 57.6595 56.0888L57.3747 54.1092ZM58.767 54.3411C58.344 54.1531 57.8847 54.0532 57.409 54.1049L57.6252 56.0932C57.6778 56.0875 57.7809 56.0915 57.9547 56.1687L58.767 54.3411ZM62.9966 56.3761L58.7945 54.3538L57.9272 56.156L62.1293 58.1783L62.9966 56.3761ZM64.29 59.8244C64.5467 59.198 64.7352 58.4739 64.466 57.7663C64.1952 57.0546 63.5733 56.653 62.9957 56.3757L62.1302 58.1787C62.5987 58.4036 62.6113 58.5159 62.5967 58.4775C62.5837 58.4432 62.65 58.5521 62.4394 59.066L64.29 59.8244ZM63.1047 64.5233L60.7769 65.6589L61.6538 67.4564L63.9816 66.3208L63.1047 64.5233ZM63.3743 64.0346C63.415 64.0844 63.4269 64.1208 63.4309 64.1408C63.435 64.1613 63.4351 64.1853 63.4258 64.2163C63.4075 64.2771 63.3335 64.4117 63.1047 64.5233L63.9816 66.3208C64.6335 66.0028 65.1385 65.4654 65.341 64.7926C65.5485 64.1029 65.4066 63.3611 64.9232 62.7694L63.3743 64.0346ZM62.4789 62.9122L63.367 64.0256L64.9305 62.7784L64.0425 61.6651L62.4789 62.9122ZM62.9628 63.0237C62.7886 63.1086 62.5949 63.0508 62.4951 62.932L64.0263 61.6453C63.5551 61.0846 62.7634 60.8957 62.0859 61.2262L62.9628 63.0237ZM59.6823 64.624L62.9628 63.0237L62.0859 61.2262L58.8054 62.8265L59.6823 64.624ZM59.8904 64.166C59.9406 64.3686 59.8329 64.5506 59.6823 64.624L58.8054 62.8265C58.1516 63.1455 57.7612 63.8882 57.949 64.6467L59.8904 64.166ZM60.2232 65.5592L59.8923 64.1741L57.9471 64.6386L58.2779 66.0238L60.2232 65.5592ZM60.7769 65.6589C60.6087 65.7409 60.4555 65.7318 60.3574 65.6936C60.2643 65.6572 60.2342 65.6057 60.2236 65.5611L58.2774 66.022C58.6475 67.5846 60.3888 68.0735 61.6538 67.4564L60.7769 65.6589Z" fill="#4B4B4B" mask="url(#path-3-outside-1_0_1)"/>
<defs>
<filter id="filter0_d_0_1" x="0" y="0" width="116" height="116" filterUnits="userSpaceOnUse" color-interpolation-filters="sRGB">
<feFlood flood-opacity="0" result="BackgroundImageFix"/>
<feColorMatrix in="SourceAlpha" type="matrix" values="0 0 0 0 0 0 0 0 0 0 0 0 0 0 0 0 0 0 127 0" result="hardAlpha"/>
<feOffset dy="1"/>
<feGaussianBlur stdDeviation="17.5"/>
<feComposite in2="hardAlpha" operator="out"/>
<feColorMatrix type="matrix" values="0 0 0 0 0 0 0 0 0 0 0 0 0 0 0 0 0 0 0.18 0"/>
<feBlend mode="normal" in2="BackgroundImageFix" result="effect1_dropShadow_0_1"/>
<feBlend mode="normal" in="SourceGraphic" in2="effect1_dropShadow_0_1" result="shape"/>
</filter>
</defs>
</svg>
