<svg xmlns="http://www.w3.org/2000/svg" width="20" height="20" viewBox="0 0 20 20" fill="none">
  <path d="M7.19615 16.9063L7.19628 16.9064C7.98375 17.6641 8.99173 18.0417 9.99959 18.0417C11.0079 18.0417 12.0147 17.6639 12.7929 16.908L12.7947 16.9063C15.1506 14.6409 17.6087 11.1804 16.6953 7.15224C15.8841 3.58335 12.7755 1.95834 9.99959 1.95834H9.99959H9.99958H9.99958H9.99957H9.99957H9.99957H9.99956H9.99956H9.99955H9.99955H9.99955H9.99954H9.99954H9.99953H9.99953H9.99952H9.99952H9.99951H9.99951H9.99951H9.9995H9.9995H9.99949H9.99949H9.99948H9.99948H9.99947H9.99946H9.99946H9.99945H9.99944H9.99944H9.99943H9.99943H9.99942H9.99942H9.99941H9.99941H9.9994H9.9994H9.9994H9.99939H9.99939H9.99938H9.99938H9.99938H9.99937H9.99937H9.99936H9.99936H9.99935H9.99935H9.99935H9.99934H9.99934H9.99933H9.99933H9.99932H9.99932H9.99931H9.99931H9.9993H9.9993H9.99929H9.99929H9.99928H9.99927H9.99927H9.99926H9.99926H9.99925H9.99925H9.99924H9.99923H9.99923H9.99922H9.99922H9.99921H9.9992H9.9992H9.99919H9.99918H9.99918H9.99917H9.99916H9.99916H9.99915H9.99914H9.99914H9.99913H9.99912H9.99912H9.99911H9.9991H9.99909H9.99909H9.99908H9.99907H9.99906H9.99906H9.99905H9.99904H9.99903H9.99902H9.99902H9.99901H9.999H9.99899H9.99898H9.99897H9.99896H9.99896H9.99895H9.99894H9.99893H9.99892H9.99891H9.9989H9.99889H9.99888H9.99887H9.99886H9.99885H9.99884H9.99884H9.99883H9.99882H9.99881H9.9988H9.99878H9.99877H9.99876H9.99875H9.99874H9.99873H9.99872H9.99871H9.9987H9.99869H9.99868H9.99867H9.99865H9.99864H9.99863H9.99862H9.99861H9.9986H9.99858H9.99857H9.99856H9.99855H9.99854H9.99852H9.99851H9.9985H9.99849H9.99847H9.99846H9.99845H9.99844H9.99842H9.99841H9.9984H9.99838H9.99837H9.99835H9.99834H9.99833H9.99831H9.9983H9.99828H9.99827H9.99826H9.99824H9.99823H9.99821H9.9982H9.99818H9.99817H9.99815H9.99814H9.99812H9.99811H9.99809H9.99808H9.99806H9.99804H9.99803H9.99801H9.998H9.99798H9.99796H9.99795H9.99793H9.99791H9.9979H9.99788H9.99786H9.99785H9.99783H9.99781H9.99779H9.99778H9.99776H9.99774H9.99772H9.9977H9.99769H9.99767H9.99765H9.99763H9.99761H9.99759H9.99757H9.99756H9.99754H9.99752H9.9975H9.99748H9.99746H9.99744H9.99742H9.9974H9.99738H9.99736H9.99734H9.99732H9.9973H9.99728H9.99726H9.99724H9.99721H9.99719H9.99717H9.99715H9.99713H9.99711H9.99709H9.99706H9.99704H9.99702H9.997H9.99697H9.99695H9.99693H9.99691H9.99688H9.99686H9.99684H9.99681H9.99679H9.99677H9.99674H9.99672H9.99669H9.99667H9.99664H9.99662H9.9966H9.99657H9.99655H9.99652H9.9965H9.99647H9.99645H9.99642H9.99639H9.99637H9.99634H9.99632H9.99629H9.99626H9.99624H9.99621H9.99618H9.99616H9.99613H9.9961H9.99607H9.99605H9.99602H9.99599H9.99596H9.99594H9.99591H9.99588H9.99585H9.99582H9.99579H9.99576H9.99573H9.99571H9.99568H9.99565H9.99562H9.99559H9.99556H9.99553H9.9955H9.99547H9.99544H9.9954H9.99537H9.99534H9.99531H9.99528H9.99525H9.99522H9.99518H9.99515H9.99512H9.99509H9.99506H9.99502H9.99499H9.99496H9.99492H9.99489H9.99486H9.99482H9.99479H9.99476H9.99472H9.99469H9.99465H9.99462H9.99459H9.99455H9.99451H9.99448H9.99444H9.99441H9.99437H9.99434H9.9943H9.99427H9.99423H9.99419H9.99416H9.99412H9.99408H9.99405H9.99401H9.99397H9.99393H9.9939H9.99386H9.99382H9.99378H9.99374H9.9937H9.99366H9.99363H9.99359H9.99355H9.99351H9.99347H9.99343H9.99339H9.99335H9.99331H9.99327H9.99323H9.99319H9.99314H9.9931H9.99306H9.99302H9.99298H9.99294H9.99289H9.99285H9.99281H9.99277H9.99272H9.99268H9.99264H9.99259H9.99255H9.99251H9.99246H9.99242H9.99237H9.99233H9.99229H9.99224H9.9922H9.99215H9.99211H9.99206H9.99201H9.99197H9.99192H9.99188H9.99183H9.99178H9.99174H9.99169H9.99164H9.99159H9.99155H9.9915H9.99145H9.9914H9.99135H9.99131H9.99126C7.22234 1.95834 4.10654 3.57611 3.29555 7.14391L7.19615 16.9063ZM7.19615 16.9063C4.84058 14.6413 2.38222 11.1725 3.29549 7.14415L7.19615 16.9063ZM6.87459 8.59168C6.87459 10.3178 8.27345 11.7167 9.99959 11.7167C11.7257 11.7167 13.1246 10.3178 13.1246 8.59168C13.1246 6.86553 11.7257 5.46668 9.99959 5.46668C8.27345 5.46668 6.87459 6.86553 6.87459 8.59168Z" fill="#FBCD7E" stroke="#4B4B4B"/>
</svg>