<svg width="111" height="111" viewBox="0 0 111 111" fill="none" xmlns="http://www.w3.org/2000/svg">
<path d="M89 55C89 46.2479 85.5232 37.8542 79.3345 31.6655C73.1458 25.4768 64.7521 22 56 22C47.2479 22 38.8542 25.4768 32.6655 31.6655C26.4768 37.8542 23 46.2479 23 55L56 55H89Z" fill="#EBEBEB"/>
<g filter="url(#filter0_d_1235_6263)">
<circle cx="55.5" cy="54.5" r="20.5" fill="white"/>
</g>
<path d="M52.5666 63.3596L52.5668 63.3597C53.5309 64.2875 54.7656 64.75 56.0001 64.75C57.2351 64.75 58.4686 64.2872 59.4217 63.3614L59.4235 63.3596C62.2561 60.636 65.2407 56.4489 64.1325 51.5608L52.5666 63.3596ZM52.5666 63.3596C49.7344 60.6363 46.7494 56.4392 47.8577 51.5508L52.5666 63.3596ZM56.0001 45.25C59.366 45.25 63.1462 47.2217 64.1325 51.5606L47.8577 51.5506C48.8437 47.2128 52.6328 45.25 55.9901 45.25H55.9902H55.9902H55.9903H55.9903H55.9904H55.9904H55.9905H55.9906H55.9906H55.9907H55.9907H55.9908H55.9908H55.9909H55.9909H55.991H55.9911H55.9911H55.9912H55.9912H55.9913H55.9913H55.9914H55.9914H55.9915H55.9915H55.9916H55.9916H55.9917H55.9918H55.9918H55.9919H55.9919H55.992H55.992H55.9921H55.9921H55.9922H55.9922H55.9923H55.9923H55.9924H55.9924H55.9925H55.9925H55.9926H55.9926H55.9927H55.9927H55.9927H55.9928H55.9928H55.9929H55.9929H55.993H55.993H55.9931H55.9931H55.9932H55.9932H55.9933H55.9933H55.9934H55.9934H55.9934H55.9935H55.9935H55.9936H55.9936H55.9937H55.9937H55.9937H55.9938H55.9938H55.9939H55.9939H55.994H55.994H55.994H55.9941H55.9941H55.9942H55.9942H55.9943H55.9943H55.9943H55.9944H55.9944H55.9945H55.9945H55.9945H55.9946H55.9946H55.9947H55.9947H55.9947H55.9948H55.9948H55.9948H55.9949H55.9949H55.995H55.995H55.995H55.9951H55.9951H55.9951H55.9952H55.9952H55.9953H55.9953H55.9953H55.9954H55.9954H55.9954H55.9955H55.9955H55.9955H55.9956H55.9956H55.9956H55.9957H55.9957H55.9957H55.9958H55.9958H55.9958H55.9959H55.9959H55.9959H55.996H55.996H55.996H55.9961H55.9961H55.9961H55.9962H55.9962H55.9962H55.9963H55.9963H55.9963H55.9964H55.9964H55.9964H55.9964H55.9965H55.9965H55.9965H55.9966H55.9966H55.9966H55.9966H55.9967H55.9967H55.9967H55.9968H55.9968H55.9968H55.9968H55.9969H55.9969H55.9969H55.997H55.997H55.997H55.997H55.9971H55.9971H55.9971H55.9971H55.9972H55.9972H55.9972H55.9972H55.9973H55.9973H55.9973H55.9973H55.9974H55.9974H55.9974H55.9974H55.9975H55.9975H55.9975H55.9975H55.9976H55.9976H55.9976H55.9976H55.9977H55.9977H55.9977H55.9977H55.9977H55.9978H55.9978H55.9978H55.9978H55.9979H55.9979H55.9979H55.9979H55.9979H55.998H55.998H55.998H55.998H55.998H55.9981H55.9981H55.9981H55.9981H55.9981H55.9982H55.9982H55.9982H55.9982H55.9982H55.9983H55.9983H55.9983H55.9983H55.9983H55.9984H55.9984H55.9984H55.9984H55.9984H55.9984H55.9985H55.9985H55.9985H55.9985H55.9985H55.9985H55.9986H55.9986H55.9986H55.9986H55.9986H55.9986H55.9987H55.9987H55.9987H55.9987H55.9987H55.9987H55.9988H55.9988H55.9988H55.9988H55.9988H55.9988H55.9988H55.9989H55.9989H55.9989H55.9989H55.9989H55.9989H55.9989H55.999H55.999H55.999H55.999H55.999H55.999H55.999H55.9991H55.9991H55.9991H55.9991H55.9991H55.9991H55.9991H55.9991H55.9992H55.9992H55.9992H55.9992H55.9992H55.9992H55.9992H55.9992H55.9992H55.9993H55.9993H55.9993H55.9993H55.9993H55.9993H55.9993H55.9993H55.9993H55.9994H55.9994H55.9994H55.9994H55.9994H55.9994H55.9994H55.9994H55.9994H55.9994H55.9995H55.9995H55.9995H55.9995H55.9995H55.9995H55.9995H55.9995H55.9995H55.9995H55.9995H55.9996H55.9996H55.9996H55.9996H55.9996H55.9996H55.9996H55.9996H55.9996H55.9996H55.9996H55.9996H55.9996H55.9997H55.9997H55.9997H55.9997H55.9997H55.9997H55.9997H55.9997H55.9998H55.9998H55.9998H55.9998H55.9998H55.9998H55.9998H55.9998H55.9998H55.9999H55.9999H55.9999H55.9999H55.9999H55.9999H55.9999H55.9999H55.9999H55.9999H55.9999H56H56H56H56H56H56H56H56H56H56H56H56H56.0001H56.0001H56.0001H56.0001H56.0001H56.0001ZM52.3501 53.31C52.3501 55.3261 53.984 56.96 56.0001 56.96C58.0162 56.96 59.6501 55.3261 59.6501 53.31C59.6501 51.2939 58.0162 49.66 56.0001 49.66C53.984 49.66 52.3501 51.2939 52.3501 53.31Z" fill="#FBCD7E" stroke="#4B4B4B"/>
<defs>
<filter id="filter0_d_1235_6263" x="0" y="0" width="111" height="111" filterUnits="userSpaceOnUse" color-interpolation-filters="sRGB">
<feFlood flood-opacity="0" result="BackgroundImageFix"/>
<feColorMatrix in="SourceAlpha" type="matrix" values="0 0 0 0 0 0 0 0 0 0 0 0 0 0 0 0 0 0 127 0" result="hardAlpha"/>
<feOffset dy="1"/>
<feGaussianBlur stdDeviation="17.5"/>
<feComposite in2="hardAlpha" operator="out"/>
<feColorMatrix type="matrix" values="0 0 0 0 0 0 0 0 0 0 0 0 0 0 0 0 0 0 0.18 0"/>
<feBlend mode="normal" in2="BackgroundImageFix" result="effect1_dropShadow_1235_6263"/>
<feBlend mode="normal" in="SourceGraphic" in2="effect1_dropShadow_1235_6263" result="shape"/>
</filter>
</defs>
</svg>
