<svg width="120" height="120" viewBox="0 0 120 120" fill="none" xmlns="http://www.w3.org/2000/svg">
<path d="M101 60C101 49.3913 96.7857 39.2172 89.2843 31.7157C81.7828 24.2143 71.6087 20 61 20C50.3913 20 40.2172 24.2143 32.7157 31.7157C25.2143 39.2172 21 49.3913 21 60L61 60H101Z" fill="#EBEBEB"/>
<g filter="url(#filter0_d_0_1)">
<circle cx="60" cy="59" r="25" fill="white"/>
</g>
<path d="M67.0341 52.2427L67.0345 52.243L71.9255 55.6688C71.9255 55.6688 71.9255 55.6689 71.9256 55.6689C72.2795 55.917 72.6303 56.3368 72.8932 56.841C73.1561 57.3452 73.3 57.8739 73.3 58.3089V64.0726C73.3 65.8544 71.8549 67.3 70.0769 67.3H60.9231C59.147 67.3 57.7 65.8479 57.7 64.0641V58.1984C57.7 57.7965 57.8298 57.2948 58.0697 56.8071C58.3094 56.3198 58.6292 55.9069 58.9508 55.6558L58.951 55.6556L63.2033 52.3333C63.2036 52.333 63.2039 52.3328 63.2042 52.3326C64.2439 51.5268 65.9527 51.4842 67.0341 52.2427Z" fill="#FBCD7E" stroke="#4B4B4B" stroke-width="1.4"/>
<path d="M59.8783 50.3633L59.8787 50.3636L65.6386 54.3935C66.0755 54.6993 66.5005 55.2103 66.817 55.8165C67.1334 56.4225 67.31 57.064 67.31 57.6V64.38C67.31 66.5434 65.5534 68.3 63.39 68.3H52.61C50.4486 68.3 48.69 66.5354 48.69 64.37V57.47C48.69 56.9738 48.8495 56.3651 49.138 55.7792C49.4263 55.1937 49.8135 54.6916 50.2105 54.3819L50.2107 54.3818L55.2187 50.4733C55.219 50.4731 55.2193 50.4729 55.2196 50.4726C56.4872 49.4912 58.5599 49.4396 59.8783 50.3633Z" fill="#FBCD7E" stroke="#4B4B4B" stroke-width="1.4"/>
<defs>
<filter id="filter0_d_0_1" x="0" y="0" width="120" height="120" filterUnits="userSpaceOnUse" color-interpolation-filters="sRGB">
<feFlood flood-opacity="0" result="BackgroundImageFix"/>
<feColorMatrix in="SourceAlpha" type="matrix" values="0 0 0 0 0 0 0 0 0 0 0 0 0 0 0 0 0 0 127 0" result="hardAlpha"/>
<feOffset dy="1"/>
<feGaussianBlur stdDeviation="17.5"/>
<feComposite in2="hardAlpha" operator="out"/>
<feColorMatrix type="matrix" values="0 0 0 0 0 0 0 0 0 0 0 0 0 0 0 0 0 0 0.18 0"/>
<feBlend mode="normal" in2="BackgroundImageFix" result="effect1_dropShadow_0_1"/>
<feBlend mode="normal" in="SourceGraphic" in2="effect1_dropShadow_0_1" result="shape"/>
</filter>
</defs>
</svg>
