<svg width="111" height="111" viewBox="0 0 111 111" fill="none" xmlns="http://www.w3.org/2000/svg">
<path d="M89 55C89 46.2479 85.5232 37.8542 79.3345 31.6655C73.1458 25.4768 64.7521 22 56 22C47.2479 22 38.8542 25.4768 32.6655 31.6655C26.4768 37.8542 23 46.2479 23 55L56 55H89Z" fill="#EBEBEB"/>
<g filter="url(#filter0_d_1236_6264)">
<circle cx="55.5" cy="54.5" r="20.5" fill="white"/>
</g>
<path d="M65 64.5H47C46.8661 64.5 46.75 64.3839 46.75 64.25C46.75 64.1161 46.8661 64 47 64H65C65.1339 64 65.25 64.1161 65.25 64.25C65.25 64.3839 65.1339 64.5 65 64.5Z" fill="#FBCD7E" stroke="#4B4B4B"/>
<path d="M62.666 46.8335L62.666 46.8335L62.6678 46.8352C63.6128 47.7707 63.9978 48.6086 63.9896 49.4149L63.9896 49.4149V49.4199C63.9896 50.1974 63.6047 51.0272 62.6678 51.9546L62.6678 51.9546L62.6646 51.9578L61.5051 53.127C59.0571 52.409 57.0952 50.4489 56.3747 48.0019L57.5431 46.8335C58.4855 45.8911 59.3371 45.5011 60.1201 45.5062C60.9049 45.5112 61.7464 45.9138 62.666 46.8335Z" fill="#FBCD7E" stroke="#4B4B4B"/>
<path d="M59.4021 54.9848L59.3929 54.9803C59.1006 54.8392 58.8049 54.6917 58.516 54.5205L59.4021 54.9848ZM59.4021 54.9848L59.4115 54.9888M59.4021 54.9848L59.4115 54.9888M59.4115 54.9888C59.4512 55.006 59.4905 55.0229 59.5294 55.0395L59.7257 54.5797L59.5294 55.0395C59.5351 55.042 59.5383 55.0447 59.5409 55.048C59.5441 55.0521 59.547 55.0579 59.5484 55.0644C59.5495 55.0696 59.5492 55.073 59.549 55.0742C59.5488 55.0745 59.5485 55.0748 59.5481 55.0752L53.8268 60.7965L53.8197 60.8036L53.8129 60.8109C53.8138 60.8099 53.8056 60.8186 53.7835 60.834C53.7626 60.8486 53.7355 60.8647 53.7042 60.8803C53.6401 60.9124 53.583 60.9303 53.5524 60.9361L49.7207 61.4749L49.7207 61.4748L49.7081 61.4769C49.6149 61.4924 49.5224 61.5 49.4303 61.5C49.0092 61.5 48.6405 61.3534 48.3835 61.106C48.09 60.8024 47.9349 60.3275 48.015 59.7828L48.0154 59.7799L48.5538 55.9615C48.5595 55.9346 48.5771 55.8795 48.61 55.8137C48.6459 55.7419 48.6799 55.6976 48.6939 55.6836L54.4223 49.9551C54.4224 49.9551 54.4224 49.9551 54.4225 49.955C54.4234 49.9551 54.4247 49.9552 54.4263 49.9555C54.4312 49.9566 54.4364 49.9589 54.4408 49.9624C54.4444 49.9653 54.4482 49.9695 54.4516 49.977C54.4727 50.0247 54.4946 50.0729 54.5172 50.1215L54.5171 50.1216M59.4115 54.9888L54.5171 50.1216M54.5171 50.1216L54.5231 50.1337M54.5171 50.1216L54.5231 50.1337M54.5231 50.1337C54.6649 50.4172 54.811 50.6995 54.98 50.9847C55.1073 51.2001 55.2557 51.436 55.3945 51.613C55.548 51.8453 55.7162 52.0465 55.8146 52.1642C55.8202 52.1709 55.8255 52.1774 55.8307 52.1835C55.8388 52.194 55.8481 52.2061 55.8578 52.2187C55.8792 52.2466 55.9026 52.2771 55.9199 52.2986C55.9353 52.3179 55.9553 52.3422 55.9775 52.3662C55.985 52.3743 55.9966 52.3866 56.0117 52.4009C56.3512 52.8078 56.7256 53.1719 57.0617 53.4584C57.1032 53.4994 57.1434 53.5368 57.1786 53.5676C57.198 53.5846 57.2188 53.6021 57.2392 53.618L57.2404 53.6189C57.2456 53.623 57.2564 53.6315 57.2714 53.6419C57.4546 53.7956 57.6611 53.9609 57.8487 54.0833M54.5231 50.1337L57.8487 54.0833M57.8487 54.0833C58.0642 54.237 58.2834 54.3831 58.5154 54.5202L57.8487 54.0833Z" fill="#FBCD7E" stroke="#4B4B4B"/>
<defs>
<filter id="filter0_d_1236_6264" x="0" y="0" width="111" height="111" filterUnits="userSpaceOnUse" color-interpolation-filters="sRGB">
<feFlood flood-opacity="0" result="BackgroundImageFix"/>
<feColorMatrix in="SourceAlpha" type="matrix" values="0 0 0 0 0 0 0 0 0 0 0 0 0 0 0 0 0 0 127 0" result="hardAlpha"/>
<feOffset dy="1"/>
<feGaussianBlur stdDeviation="17.5"/>
<feComposite in2="hardAlpha" operator="out"/>
<feColorMatrix type="matrix" values="0 0 0 0 0 0 0 0 0 0 0 0 0 0 0 0 0 0 0.18 0"/>
<feBlend mode="normal" in2="BackgroundImageFix" result="effect1_dropShadow_1236_6264"/>
<feBlend mode="normal" in="SourceGraphic" in2="effect1_dropShadow_1236_6264" result="shape"/>
</filter>
</defs>
</svg>
