<svg xmlns="http://www.w3.org/2000/svg" width="24" height="24" viewBox="0 0 24 24" fill="none">
  <g clip-path="url(#clip0_8_770)">
    <path d="M3.5 18H15V0.5C15 0.367392 15.0527 0.240215 15.1464 0.146447C15.2402 0.0526784 15.3674 0 15.5 0L20.5 0C20.6326 0 20.7598 0.0526784 20.8536 0.146447C20.9473 0.240215 21 0.367392 21 0.5V23.5C21 23.6326 20.9473 23.7598 20.8536 23.8536C20.7598 23.9473 20.6326 24 20.5 24H3.5C3.36739 24 3.24022 23.9473 3.14645 23.8536C3.05268 23.7598 3 23.6326 3 23.5V18.5C3 18.3674 3.05268 18.2402 3.14645 18.1464C3.24022 18.0527 3.36739 18 3.5 18Z" fill="#4B4B4B"/>
    <path d="M16 1V18.293L20 22.293V19H18.5C18.3674 19 18.2402 18.9473 18.1464 18.8536C18.0527 18.7598 18 18.6326 18 18.5C18 18.3674 18.0527 18.2402 18.1464 18.1464C18.2402 18.0527 18.3674 18 18.5 18H20V16H18.5C18.3674 16 18.2402 15.9473 18.1464 15.8536C18.0527 15.7598 18 15.6326 18 15.5C18 15.3674 18.0527 15.2402 18.1464 15.1464C18.2402 15.0527 18.3674 15 18.5 15H20V13H18.5C18.3674 13 18.2402 12.9473 18.1464 12.8536C18.0527 12.7598 18 12.6326 18 12.5C18 12.3674 18.0527 12.2402 18.1464 12.1464C18.2402 12.0527 18.3674 12 18.5 12H20V10H18.5C18.3674 10 18.2402 9.94732 18.1464 9.85355C18.0527 9.75979 18 9.63261 18 9.5C18 9.36739 18.0527 9.24021 18.1464 9.14645C18.2402 9.05268 18.3674 9 18.5 9H20V7H18.5C18.3674 7 18.2402 6.94732 18.1464 6.85355C18.0527 6.75979 18 6.63261 18 6.5C18 6.36739 18.0527 6.24021 18.1464 6.14645C18.2402 6.05268 18.3674 6 18.5 6H20V4H18.5C18.3674 4 18.2402 3.94732 18.1464 3.85355C18.0527 3.75979 18 3.63261 18 3.5C18 3.36739 18.0527 3.24021 18.1464 3.14645C18.2402 3.05268 18.3674 3 18.5 3H20V1H16Z" fill="#E6E6E6"/>
    <path d="M4 23H19.293L15.293 19H4V23Z" fill="#DDB26E"/>
    <path d="M15.854 21.146C15.9005 21.1925 15.9374 21.2477 15.9625 21.3084C15.9877 21.3692 16.0006 21.4343 16.0006 21.5C16.0006 21.5657 15.9877 21.6308 15.9625 21.6916C15.9374 21.7523 15.9005 21.8075 15.854 21.854C15.8075 21.9005 15.7523 21.9374 15.6916 21.9625C15.6308 21.9877 15.5657 22.0006 15.5 22.0006C15.4342 22.0006 15.3691 21.9877 15.3084 21.9625C15.2477 21.9374 15.1925 21.9005 15.146 21.854L14.293 21H5.99999V21.5C5.99999 21.6326 5.94732 21.7598 5.85355 21.8536C5.75978 21.9473 5.6326 22 5.49999 22C5.36739 22 5.24021 21.9473 5.14644 21.8536C5.05267 21.7598 4.99999 21.6326 4.99999 21.5V20.5C4.99999 20.3674 5.05267 20.2402 5.14644 20.1464C5.24021 20.0527 5.36739 20 5.49999 20H14.5C14.5657 19.9999 14.6308 20.0127 14.6915 20.0378C14.7523 20.0628 14.8075 20.0996 14.854 20.146L15.854 21.146Z" fill="#4B4B4B"/>
  </g>
  <defs>
    <clipPath id="clip0_8_770">
      <rect width="24" height="24" fill="white" transform="matrix(-1 0 0 1 24 0)"/>
    </clipPath>
  </defs>
</svg>