<svg width="30" height="30" viewBox="0 0 30 30" fill="none" xmlns="http://www.w3.org/2000/svg">
<path d="M14.925 2.7625L11.9125 9.775H8.9C8.4 9.775 7.9125 9.8125 7.4375 9.9125L8.6875 6.9125L8.7375 6.8L8.8125 6.6C8.85 6.5125 8.875 6.4375 8.9125 6.375C10.3625 3.0125 11.9875 1.9625 14.925 2.7625Z" fill="white"/>
<path d="M23.4125 10.1125L23.3875 10.1C22.6375 9.8875 21.875 9.775 21.1 9.775H13.275L16.0875 3.2375L16.125 3.15C16.3 3.2125 16.4875 3.3 16.675 3.3625L19.4375 4.525C20.975 5.1625 22.05 5.825 22.7125 6.625C22.825 6.775 22.925 6.9125 23.025 7.075C23.1375 7.25 23.225 7.425 23.275 7.6125C23.325 7.725 23.3625 7.825 23.3875 7.9375C23.575 8.575 23.5875 9.3 23.4125 10.1125Z" fill="white"/>
<path d="M15.65 22.075H15.9625C16.3375 22.075 16.65 21.7375 16.65 21.325C16.65 20.8 16.5 20.725 16.175 20.6L15.65 20.4125V22.075Z" fill="white"/>
<path d="M22.8625 11.9C22.3 11.7375 21.7125 11.65 21.1 11.65H8.89999C8.04999 11.65 7.24999 11.8125 6.49999 12.1375C4.32499 13.075 2.79999 15.2375 2.79999 17.75V20.1875C2.79999 20.4875 2.82499 20.775 2.86249 21.075C3.13749 25.05 5.26249 27.175 9.23749 27.4375C9.52499 27.475 9.81249 27.5 10.125 27.5H19.875C24.5 27.5 26.9375 25.3 27.175 20.925C27.1875 20.6875 27.2 20.4375 27.2 20.1875V17.75C27.2 14.9875 25.3625 12.6625 22.8625 11.9ZM16.6 19.375C17.175 19.575 17.95 20 17.95 21.325C17.95 22.4625 17.0625 23.375 15.9625 23.375H15.65V23.65C15.65 24.0125 15.3625 24.3 15 24.3C14.6375 24.3 14.35 24.0125 14.35 23.65V23.375H14.2375C13.0375 23.375 12.05 22.3625 12.05 21.1125C12.05 20.75 12.3375 20.4625 12.7 20.4625C13.0625 20.4625 13.35 20.75 13.35 21.1125C13.35 21.6375 13.75 22.075 14.2375 22.075H14.35V19.9625L13.4 19.625C12.825 19.425 12.05 19 12.05 17.675C12.05 16.5375 12.9375 15.625 14.0375 15.625H14.35V15.35C14.35 14.9875 14.6375 14.7 15 14.7C15.3625 14.7 15.65 14.9875 15.65 15.35V15.625H15.7625C16.9625 15.625 17.95 16.6375 17.95 17.8875C17.95 18.25 17.6625 18.5375 17.3 18.5375C16.9375 18.5375 16.65 18.25 16.65 17.8875C16.65 17.3625 16.25 16.925 15.7625 16.925H15.65V19.0375L16.6 19.375Z" fill="white"/>
<path d="M13.35 17.675C13.35 18.2 13.5 18.275 13.825 18.4L14.35 18.5875V16.925H14.0375C13.65 16.925 13.35 17.2625 13.35 17.675Z" fill="white"/>
</svg>
