<svg xmlns="http://www.w3.org/2000/svg" width="20" height="20" viewBox="0 0 20 20" fill="none">
  <path d="M3.73966 15.2301L3.74283 15.2308C4.22177 15.3473 4.61701 15.7159 4.72878 16.222L5.01938 17.4425L5.01945 17.4428C5.08458 17.7171 5.42796 17.7914 5.60037 17.5865L5.60556 17.5803L5.60561 17.5803L8.00753 14.8169C6.51068 14.4227 5.16584 13.5775 4.15866 12.3898L2.3782 14.1702C2.15729 14.3911 2.13323 14.5863 2.15335 14.692C2.17301 14.7954 2.24136 14.8758 2.36466 14.9051L3.73966 15.2301ZM3.73966 15.2301L2.36488 14.9051L3.73966 15.2301ZM16.2185 15.2301L16.2185 15.2301L17.5933 14.9051L16.2185 15.2301ZM16.2185 15.2301L16.2154 15.2308M16.2185 15.2301L16.2154 15.2308M16.2154 15.2308C15.7364 15.3473 15.3412 15.7159 15.2294 16.2219L14.9388 17.4425L14.9387 17.4428M16.2154 15.2308L14.9387 17.4428M14.9387 17.4428C14.8736 17.7171 14.5302 17.7914 14.3578 17.5865L14.3579 17.5864M14.9387 17.4428L14.3579 17.5864M14.3579 17.5864L14.3526 17.5803M14.3579 17.5864L14.3526 17.5803M14.3526 17.5803L11.9506 14.8169M14.3526 17.5803L11.9506 14.8169M11.9506 14.8169C13.4475 14.4227 14.7923 13.5775 15.7995 12.3898L17.58 14.1702C17.8009 14.3911 17.8249 14.5863 17.8048 14.692C17.7852 14.7954 17.7168 14.8758 17.5935 14.9051L11.9506 14.8169ZM10.8032 12.7636L10.7958 12.7647L10.7884 12.766C10.535 12.8107 10.2724 12.8334 10.0003 12.8334C9.72822 12.8334 9.46567 12.8107 9.21222 12.766L9.20484 12.7647L9.19743 12.7636C7.68464 12.5431 6.38185 11.6841 5.55724 10.4632C4.99448 9.61855 4.66699 8.60677 4.66699 7.50002C4.66699 4.55116 7.05147 2.16669 10.0003 2.16669C12.9492 2.16669 15.3337 4.55116 15.3337 7.50002C15.3337 8.60675 15.0062 9.61852 14.4434 10.4631C13.6188 11.6841 12.316 12.5431 10.8032 12.7636ZM12.348 5.91496L11.4629 5.76605C11.4628 5.76604 11.4628 5.76602 11.4628 5.76601C11.4571 5.76341 11.4482 5.75847 11.4381 5.75106C11.4287 5.74409 11.4216 5.73742 11.4174 5.73282L10.9309 4.75975C10.7619 4.42187 10.454 4.08335 10.0003 4.08335C9.5467 4.08335 9.23872 4.42187 9.06978 4.75975L8.58306 5.73318C8.57851 5.73824 8.57085 5.74556 8.56074 5.75315C8.55166 5.75996 8.54371 5.76465 8.53836 5.76736L7.66043 5.91505C7.29242 5.97498 6.89097 6.16805 6.75471 6.59018C6.61822 7.01302 6.83186 7.40533 7.09677 7.67024L7.09675 7.67027L7.10101 7.67442L7.79383 8.35095C7.79648 8.35675 7.7999 8.36561 7.80299 8.37708C7.80692 8.39165 7.80889 8.40518 7.80946 8.41515C7.80955 8.41681 7.8096 8.4182 7.80962 8.41932L7.61354 9.26084C7.6135 9.26102 7.61345 9.2612 7.61341 9.26138C7.52462 9.64037 7.51636 10.1608 7.92204 10.4556C8.32414 10.7477 8.81648 10.5861 9.15226 10.3902L9.1544 10.389L9.9826 9.90035C9.98833 9.89915 9.99742 9.89794 10.0087 9.89794C10.0199 9.89794 10.029 9.89915 10.0347 9.90035L10.8606 10.3876C10.861 10.3879 10.8614 10.3881 10.8618 10.3883C11.1988 10.5893 11.6933 10.7537 12.0972 10.4573C12.5005 10.1613 12.4928 9.64067 12.4038 9.26103C12.4038 9.26097 12.4038 9.2609 12.4038 9.26084L12.2046 8.40616C12.205 8.40051 12.2063 8.39141 12.2094 8.38041C12.2126 8.36908 12.2166 8.36009 12.2195 8.35461L12.9039 7.67024C13.1693 7.40486 13.3811 7.01404 13.2479 6.59292C13.1143 6.1708 12.7158 5.97562 12.3492 5.91515C12.3488 5.91509 12.3484 5.91502 12.348 5.91496ZM4.10583 12.3268L4.10595 12.3269L4.10583 12.3268Z" fill="#FBCD7E" stroke="#4B4B4B"/>
</svg>