<?xml version="1.0" encoding="UTF-8"?>
<svg id="Layer_1" data-name="Layer 1" xmlns="http://www.w3.org/2000/svg" xmlns:xlink="http://www.w3.org/1999/xlink" viewBox="0 0 1080 1080">
  <defs>
    <style>
      .cls-1 {
        fill: url(#linear-gradient-2);
      }

      .cls-2 {
        font-family: Montserrat-Regular, Montserrat;
      }

      .cls-3 {
        font-family: Montserrat-Medium, Montserrat;
        font-weight: 500;
      }

      .cls-4 {
        fill: url(#linear-gradient-15);
      }

      .cls-5 {
        fill: url(#linear-gradient-14);
      }

      .cls-6 {
        fill: url(#linear-gradient-6);
      }

      .cls-7 {
        fill: url(#linear-gradient-11);
      }

      .cls-8 {
        fill: url(#linear-gradient-10);
      }

      .cls-9 {
        fill: url(#linear-gradient-5);
      }

      .cls-10 {
        fill: none;
      }

      .cls-11 {
        fill: url(#linear-gradient-7);
      }

      .cls-12 {
        fill: url(#linear-gradient-9);
      }

      .cls-13 {
        fill: url(#linear-gradient-3);
      }

      .cls-14 {
        fill: url(#linear-gradient);
      }

      .cls-15 {
        fill: url(#linear-gradient-4);
      }

      .cls-16 {
        fill: url(#linear-gradient-8);
      }

      .cls-17 {
        font-size: 115.7px;
      }

      .cls-18 {
        fill: url(#linear-gradient-12);
      }

      .cls-19 {
        fill: url(#linear-gradient-13);
      }
    </style>
    <linearGradient id="linear-gradient" x1="548.59" y1="390.87" x2="1005.02" y2="390.87" gradientUnits="userSpaceOnUse">
      <stop offset="0" stop-color="#fbcd7e"/>
      <stop offset=".2" stop-color="#fbcd7e"/>
      <stop offset=".53" stop-color="#e0b570"/>
      <stop offset=".75" stop-color="#b18958"/>
      <stop offset="1" stop-color="#aa8256"/>
    </linearGradient>
    <linearGradient id="linear-gradient-2" x1="83.49" y1="783.54" x2="998.93" y2="783.54" xlink:href="#linear-gradient"/>
    <linearGradient id="linear-gradient-3" x1="83.49" y1="783.54" x2="998.93" y2="783.54" xlink:href="#linear-gradient"/>
    <linearGradient id="linear-gradient-4" x1="83.49" y1="783.54" x2="998.93" y2="783.54" xlink:href="#linear-gradient"/>
    <linearGradient id="linear-gradient-5" x1="83.49" y1="783.54" x2="998.93" y2="783.54" xlink:href="#linear-gradient"/>
    <linearGradient id="linear-gradient-6" x1="83.49" y1="783.54" x2="998.93" y2="783.54" xlink:href="#linear-gradient"/>
    <linearGradient id="linear-gradient-7" x1="83.49" y1="783.54" x2="998.93" y2="783.54" xlink:href="#linear-gradient"/>
    <linearGradient id="linear-gradient-8" x1="83.49" y1="783.54" x2="998.93" y2="783.54" xlink:href="#linear-gradient"/>
    <linearGradient id="linear-gradient-9" x1="83.49" y1="783.54" x2="998.93" y2="783.54" xlink:href="#linear-gradient"/>
    <linearGradient id="linear-gradient-10" x1="83.49" y1="783.54" x2="998.93" y2="783.54" xlink:href="#linear-gradient"/>
    <linearGradient id="linear-gradient-11" x1="83.49" y1="783.54" x2="998.93" y2="783.54" xlink:href="#linear-gradient"/>
    <linearGradient id="linear-gradient-12" x1="83.49" y1="783.54" x2="998.93" y2="783.54" xlink:href="#linear-gradient"/>
    <linearGradient id="linear-gradient-13" x1="83.49" y1="783.54" x2="998.93" y2="783.54" xlink:href="#linear-gradient"/>
    <linearGradient id="linear-gradient-14" x1="83.49" y1="783.54" x2="998.93" y2="783.54" xlink:href="#linear-gradient"/>
    <linearGradient id="linear-gradient-15" x1="83.59" x2="651.79" xlink:href="#linear-gradient"/>
  </defs>
  <g>
    <polygon class="cls-10" points="779.68 471.41 685.94 174.08 764.8 422.42 779.68 471.41"/>
    <path class="cls-14" d="m755.11,677.49h249.91c-16.95-1.78-31.45-3.94-43.42-6.58-11.97-2.64-22.35-7.17-31.12-13.6-8.77-6.43-16.36-15.35-22.79-26.73l-16.72-39.42-11.65-37.97-78.16-246.27-48.34-159.04c-3.29-11.11-9.51-35.3-11.38-43.63h-19.12c-29.02,0-49.64,28.22-40.81,55.87l3.47,10.91.86,2.79.09.24v.03l78.87,248.34,14.88,48.99h-39.77v-58.09c0-1.69-.95-3.23-2.46-4l-46.09-23.44v-103.02c0-1.57-.83-3.02-2.16-3.85-1.33-.8-2.99-.89-4.39-.18l-48.55,24.69c-1.51.77-2.46,2.31-2.46,4v44.07l-25.37,23.44c-1.48.74-2.46,2.31-2.46,4l-22.26,92.38-16.24,51.75c-6.79,21.1-13.07,39.45-18.88,55.07l3.97,12.92,3.29,7.74c2.76-17.84,8.39-40.46,16.89-67.84l15.77-52.61h87.55c31.54,0,61.2,10.34,85.27,28.22,24.1,17.87,42.53,43.3,51.66,73.5,9.93,31.57,10.08,54.95.44,70.15-9.66,15.2-29.11,24.24-58.33,27.18Zm-140.13-295.7l18.82-20.12v109.75h-40.19l21.37-89.63Zm67.37,89.63h-39.57v-161.12l39.57-20.12v181.24Zm48.55,0h-39.54v-75.43l39.54,20.1v55.34Z"/>
  </g>
  <g>
    <text class="cls-17" transform="translate(83.59 824.03) scale(.88 1)"><tspan class="cls-3" x="0" y="0">AVA </tspan><tspan class="cls-2" x="274.33" y="0">REAL ESTATE</tspan></text>
    <g>
      <path class="cls-1" d="m83.49,824.03l32.21-80.99h10.06l32.31,80.99h-10.67l-28.75-74.51h4.06l-28.75,74.51h-10.46Zm13.72-20.25l2.74-9.26h40.03l2.95,9.26h-45.72Z"/>
      <path class="cls-13" d="m185.4,824.03l-31.29-80.99h10.97l28.75,74.74h-6.3l28.96-74.74h10.16l-31.19,80.99h-10.06Z"/>
      <path class="cls-15" d="m222.69,824.03l32.21-80.99h10.06l32.31,80.99h-10.67l-28.75-74.51h4.06l-28.75,74.51h-10.46Zm13.72-20.25l2.74-9.26h40.03l2.95,9.26h-45.72Z"/>
      <path class="cls-9" d="m336.07,824.03v-80.99h26.62c6.03,0,11.21,1.1,15.54,3.3,4.33,2.2,7.67,5.36,10.01,9.49,2.34,4.13,3.51,9.12,3.51,14.98s-1.17,10.63-3.51,14.75c-2.34,4.13-5.67,7.29-10.01,9.49-4.34,2.2-9.52,3.3-15.54,3.3h-22.45l3.35-3.93v29.62h-7.52Zm7.52-28.93l-3.35-4.05h22.25c7.11,0,12.51-1.77,16.21-5.32,3.69-3.55,5.54-8.52,5.54-14.93s-1.85-11.49-5.54-15.04c-3.69-3.55-9.09-5.32-16.21-5.32h-22.25l3.35-4.05v48.71Zm41.05,28.93l-18.29-29.39h8.13l18.39,29.39h-8.23Z"/>
      <path class="cls-6" d="m417.05,816.63h42.77v7.41h-50.29v-80.99h48.77v7.41h-41.25v66.18Zm-.81-37.37h37.59v7.29h-37.59v-7.29Z"/>
      <path class="cls-11" d="m466.12,824.03l32.51-80.99h7.42l32.51,80.99h-7.92l-29.87-76.02h3.05l-29.87,76.02h-7.82Zm12.8-21.64l2.24-6.94h41.35l2.24,6.94h-45.82Z"/>
      <path class="cls-16" d="m550.35,824.03v-80.99h7.52v73.59h39.83v7.41h-47.35Z"/>
      <path class="cls-12" d="m644.34,816.63h42.77v7.41h-50.29v-80.99h48.77v7.41h-41.25v66.18Zm-.81-37.37h37.59v7.29h-37.59v-7.29Z"/>
      <path class="cls-8" d="m724.4,824.73c-5.28,0-10.35-.98-15.19-2.95s-8.58-4.49-11.23-7.58l2.95-6.59c2.5,2.78,5.88,5.11,10.11,7,4.23,1.89,8.69,2.83,13.36,2.83s8.11-.64,10.92-1.91c2.81-1.27,4.88-2.99,6.2-5.15,1.32-2.16,1.98-4.55,1.98-7.17,0-3.16-.8-5.71-2.39-7.64-1.59-1.93-3.67-3.45-6.25-4.57-2.58-1.12-5.42-2.1-8.54-2.95-3.12-.85-6.23-1.75-9.35-2.72-3.12-.96-5.98-2.26-8.59-3.88-2.61-1.62-4.71-3.76-6.3-6.42-1.59-2.66-2.39-6.15-2.39-10.47,0-4.01.93-7.69,2.79-11.05,1.86-3.35,4.72-6.05,8.58-8.1,3.86-2.04,8.8-3.07,14.83-3.07,4,0,7.96.64,11.89,1.91,3.93,1.27,7.32,3.03,10.16,5.26l-2.54,6.83c-3.05-2.31-6.28-4.01-9.7-5.09-3.42-1.08-6.72-1.62-9.91-1.62-4.27,0-7.79.66-10.57,1.97-2.78,1.31-4.83,3.07-6.15,5.26-1.32,2.2-1.98,4.69-1.98,7.46,0,3.16.79,5.71,2.39,7.64,1.59,1.93,3.69,3.43,6.3,4.51,2.61,1.08,5.47,2.04,8.59,2.89,3.11.85,6.21,1.78,9.3,2.78,3.08,1,5.93,2.3,8.54,3.88,2.61,1.58,4.71,3.68,6.3,6.31,1.59,2.62,2.39,6.06,2.39,10.3,0,3.93-.95,7.58-2.84,10.93-1.9,3.36-4.79,6.06-8.69,8.1-3.9,2.04-8.89,3.07-14.99,3.07Z"/>
      <path class="cls-7" d="m780.08,824.03v-73.59h-24.99v-7.41h57.51v7.41h-24.99v73.59h-7.52Z"/>
      <path class="cls-18" d="m809.64,824.03l32.51-80.99h7.42l32.51,80.99h-7.92l-29.87-76.02h3.05l-29.87,76.02h-7.82Zm12.8-21.64l2.24-6.94h41.35l2.24,6.94h-45.82Z"/>
      <path class="cls-19" d="m904.13,824.03v-73.59h-24.99v-7.41h57.51v7.41h-24.99v73.59h-7.52Z"/>
      <path class="cls-5" d="m956.15,816.63h42.77v7.41h-50.29v-80.99h48.77v7.41h-41.25v66.18Zm-.81-37.37h37.59v7.29h-37.59v-7.29Z"/>
    </g>
  </g>
  <path class="cls-4" d="m401.88,677.49h249.91c-16.95-1.78-31.45-3.94-43.42-6.58-11.97-2.64-22.35-7.17-31.12-13.6-8.77-6.43-16.36-15.35-22.79-26.73l-13.43-31.68-3.29-7.74-3.97-12.92-7.68-25.04-78.16-246.27-48.34-159.04c-3.29-11.11-9.51-35.3-11.38-43.63h-19.09c-29.05,0-49.67,28.22-40.84,55.87l-114.05,363.04c-10.52,32.75-19.86,58.89-28.04,78.48-8.21,19.59-16.81,34.77-25.87,45.58-9.07,10.82-19.59,18.14-31.57,21.93-12,3.79-27.06,6.55-45.17,8.33h186.78c-14.61-1.19-27.62-3.08-39.03-5.72-11.38-2.61-19.71-8.6-24.99-17.96-5.25-9.34-7.02-23.68-5.25-42.98,1.75-19.29,7.88-45.88,18.41-79.79l15.77-52.61h87.55c31.54,0,61.2,10.34,85.27,28.22,24.1,17.87,42.53,43.3,51.66,73.5,9.93,31.57,10.08,54.95.44,70.15-9.66,15.2-29.11,24.24-58.33,27.18Zm-163.96-206.08l93.84-300.39,79.82,251.39,14.88,48.99h-188.53Z"/>
</svg>