<svg xmlns="http://www.w3.org/2000/svg" width="187" height="135" viewBox="0 0 187 135" fill="none">
  <path d="M141.327 68.8603L122.333 13.2018L138.312 59.6896L141.327 68.8603Z" fill="white"/>
  <path d="M136.348 107.437H186.985C183.55 107.104 180.612 106.7 178.187 106.206C175.762 105.711 173.659 104.864 171.882 103.66C170.105 102.456 168.567 100.786 167.264 98.6561L163.876 91.2769L161.516 84.1692L145.679 38.0688L135.884 8.29742C135.218 6.21769 133.957 1.68946 133.578 0.130127H129.704C123.824 0.130127 119.646 5.41275 121.435 10.5887L122.138 12.631L122.313 13.1532L122.331 13.1982V13.2038L138.312 59.6916L141.327 68.8623H133.268V57.9882C133.268 57.6718 133.076 57.3835 132.77 57.2394L123.431 52.8516V33.5668C123.431 33.2729 123.263 33.0015 122.994 32.8461C122.724 32.6963 122.388 32.6795 122.104 32.8124L112.267 37.4342C111.961 37.5784 111.768 37.8666 111.768 38.183V46.4327L106.628 50.8205C106.328 50.959 106.129 51.2529 106.129 51.5693L101.619 68.8623L98.3286 78.5496C96.9528 82.4994 95.6804 85.9344 94.5032 88.8584L95.3076 91.2769L95.9742 92.7258C96.5334 89.3863 97.6742 85.1519 99.3964 80.0266L102.592 70.1783H120.331C126.722 70.1783 132.731 72.1139 137.608 75.4609C142.492 78.806 146.226 83.5664 148.076 89.2197C150.088 95.1294 150.118 99.506 148.165 102.351C146.208 105.197 142.267 106.889 136.346 107.439L136.348 107.437ZM107.955 52.0841L111.768 48.3177V68.8623H103.625L107.955 52.0841ZM121.606 68.8623H113.588V38.7015L121.606 34.9352V68.8623ZM131.443 68.8623H123.431V54.7422L131.443 58.5048V68.8642V68.8623Z" fill="white"/>
  <path d="M0.264648 134.869L6.79103 119.708H8.82938L15.376 134.869H13.2141L7.38875 120.921H8.21139L2.38608 134.869H0.266675H0.264648ZM3.04459 131.078L3.59977 129.345H11.7106L12.3084 131.078H3.04459Z" fill="white"/>
  <path d="M20.9137 134.869L14.5737 119.708H16.7965L22.6218 133.699H21.3453L27.2131 119.708H29.2718L22.9521 134.869H20.9137Z" fill="white"/>
  <path d="M28.469 134.869L34.9954 119.708H37.0337L43.5804 134.869H41.4184L35.5931 120.921H36.4157L30.5904 134.869H28.471H28.469ZM31.2489 131.078L31.8041 129.345H39.915L40.5127 131.078H31.2489Z" fill="white"/>
  <path d="M51.4429 134.869V119.708H56.8366C58.0584 119.708 59.108 119.914 59.9853 120.326C60.8627 120.738 61.5394 121.329 62.0135 122.102C62.4877 122.875 62.7247 123.809 62.7247 124.906C62.7247 126.003 62.4877 126.896 62.0135 127.668C61.5394 128.441 60.8647 129.032 59.9853 129.444C59.1059 129.856 58.0564 130.062 56.8366 130.062H52.2878L52.9666 129.326V134.871H51.4429V134.869ZM52.9666 129.453L52.2878 128.695H56.7961C58.2367 128.695 59.3309 128.364 60.0805 127.699C60.8282 127.035 61.2031 126.104 61.2031 124.905C61.2031 123.705 60.8282 122.754 60.0805 122.089C59.3329 121.425 58.2387 121.093 56.7961 121.093H52.2878L52.9666 120.335V129.453ZM61.2841 134.869L57.5782 129.367H59.2255L62.9517 134.869H61.2841Z" fill="white"/>
  <path d="M67.8504 133.483H76.5164V134.871H66.3267V119.71H76.2084V121.097H67.8504V133.485V133.483ZM67.6862 126.488H75.3027V127.853H67.6862V126.488Z" fill="white"/>
  <path d="M77.793 134.869L84.3801 119.708H85.8836L92.4707 134.869H90.866L84.8137 120.638H85.4317L79.3795 134.869H77.795H77.793ZM80.3865 130.818L80.8404 129.519H89.2187L89.6726 130.818H80.3885H80.3865Z" fill="white"/>
  <path d="M94.8601 134.869V119.708H96.3838V133.484H104.454V134.871H94.8601V134.869Z" fill="white"/>
  <path d="M113.904 133.483H122.57V134.871H112.38V119.71H122.262V121.097H113.904V133.485V133.483ZM113.739 126.488H121.356V127.853H113.739V126.488Z" fill="white"/>
  <path d="M130.126 135C129.056 135 128.029 134.817 127.048 134.448C126.067 134.079 125.309 133.607 124.772 133.029L125.37 131.795C125.877 132.316 126.562 132.752 127.419 133.106C128.276 133.459 129.179 133.635 130.126 133.635C131.072 133.635 131.769 133.516 132.338 133.278C132.908 133.04 133.327 132.718 133.595 132.314C133.862 131.909 133.996 131.462 133.996 130.972C133.996 130.38 133.834 129.903 133.511 129.541C133.189 129.18 132.768 128.896 132.245 128.686C131.722 128.476 131.147 128.293 130.515 128.134C129.883 127.975 129.252 127.806 128.62 127.625C127.988 127.445 127.409 127.201 126.88 126.898C126.351 126.595 125.925 126.194 125.603 125.696C125.281 125.198 125.119 124.545 125.119 123.736C125.119 122.986 125.307 122.297 125.684 121.668C126.061 121.041 126.641 120.535 127.423 120.152C128.205 119.77 129.206 119.577 130.428 119.577C131.238 119.577 132.04 119.697 132.837 119.935C133.633 120.172 134.32 120.502 134.895 120.919L134.381 122.198C133.763 121.765 133.108 121.447 132.415 121.245C131.722 121.043 131.054 120.942 130.407 120.942C129.542 120.942 128.829 121.065 128.266 121.31C127.702 121.556 127.287 121.885 127.02 122.295C126.752 122.707 126.618 123.173 126.618 123.692C126.618 124.283 126.778 124.76 127.103 125.122C127.425 125.483 127.85 125.764 128.379 125.966C128.908 126.168 129.487 126.348 130.12 126.507C130.75 126.666 131.378 126.84 132.004 127.027C132.628 127.215 133.205 127.458 133.734 127.754C134.263 128.049 134.689 128.443 135.011 128.935C135.333 129.425 135.495 130.069 135.495 130.863C135.495 131.599 135.303 132.282 134.92 132.909C134.535 133.538 133.949 134.043 133.159 134.425C132.369 134.807 131.358 135 130.122 135H130.126Z" fill="white"/>
  <path d="M141.408 134.869V121.093H136.344V119.706H147.997V121.093H142.933V134.869H141.41H141.408Z" fill="white"/>
  <path d="M147.397 134.869L153.984 119.708H155.488L162.075 134.869H160.47L154.418 120.638H155.036L148.983 134.869H147.399H147.397ZM149.991 130.818L150.444 129.519H158.823L159.277 130.818H149.993H149.991Z" fill="white"/>
  <path d="M166.542 134.869V121.093H161.479V119.706H173.131V121.093H168.068V134.869H166.544H166.542Z" fill="white"/>
  <path d="M177.083 133.483H185.749V134.871H175.559V119.71H185.441V121.097H177.083V133.485V133.483ZM176.919 126.488H184.535V127.853H176.919V126.488Z" fill="white"/>
  <path d="M64.7775 107.437H115.414C111.98 107.104 109.042 106.7 106.616 106.206C104.191 105.711 102.088 104.863 100.311 103.66C98.5339 102.456 96.9961 100.786 95.6932 98.6561L92.972 92.7258L92.3054 91.2769L91.501 88.8583L89.9449 84.171L74.1081 38.0706L64.3135 8.29925C63.6469 6.21952 62.3866 1.69129 62.0077 0.131958H58.1397C52.2536 0.131958 48.0756 5.41458 49.8647 10.5905L26.7559 78.5495C24.6244 84.6802 22.7319 89.5734 21.0745 93.2406C19.411 96.9077 17.6685 99.7493 15.8327 101.773C13.995 103.798 11.8634 105.169 9.43602 105.878C7.00458 106.588 3.95313 107.104 0.283691 107.437H38.129C35.1687 107.215 32.5326 106.861 30.2207 106.367C27.9149 105.878 26.2271 104.757 25.1573 103.005C24.0935 101.256 23.7349 98.5719 24.0935 94.959C24.4481 91.348 25.6902 86.3705 27.8237 80.0228L31.0191 70.1745H48.7584C55.149 70.1745 61.1587 72.1101 66.0358 75.4571C70.9189 78.8023 74.6532 83.5626 76.5031 89.2159C78.5151 95.1256 78.5455 99.5022 76.5923 102.348C74.6349 105.193 70.694 106.885 64.7735 107.436L64.7775 107.437ZM31.556 68.8604L50.5698 12.6291L66.7429 59.6878L69.7579 68.8585H31.558L31.556 68.8604Z" fill="white"/>
</svg>