<svg width="945" height="862" viewBox="0 0 945 862" fill="none" xmlns="http://www.w3.org/2000/svg">
<g opacity="0.08">
<path d="M64.6632 744.766L101.982 531.814C110.103 485.473 142.537 447.089 186.873 431.348L390.61 359.012L594.347 286.676C638.683 270.934 671.116 232.55 679.237 186.209L716.556 -26.7432" stroke="white" stroke-width="1.4" stroke-linecap="round" stroke-linejoin="round"/>
<path d="M26.0875 712.172L63.4067 499.22C71.5278 452.878 103.961 414.494 148.297 398.753L352.034 326.417L555.771 254.081C600.107 238.34 632.54 199.955 640.661 153.614L677.981 -59.3379" stroke="white" stroke-width="1.4" stroke-linecap="round" stroke-linejoin="round"/>
<path d="M-12.488 679.578L24.8311 466.625C32.9522 420.284 65.3853 381.9 109.721 366.159L313.458 293.823L517.196 221.487C561.532 205.745 593.965 167.361 602.086 121.02L639.405 -91.9322" stroke="white" stroke-width="1.4" stroke-linecap="round" stroke-linejoin="round"/>
<path d="M103.239 777.361L140.558 564.409C148.679 518.068 181.112 479.684 225.448 463.942L429.185 391.606L632.922 319.27C677.258 303.529 709.692 265.145 717.813 218.804L755.132 5.85154" stroke="white" stroke-width="1.4" stroke-linecap="round" stroke-linejoin="round"/>
<path d="M141.814 809.956L179.134 597.004C187.255 550.663 219.688 512.278 264.024 496.537L467.761 424.201L671.498 351.865C715.834 336.124 748.267 297.74 756.388 251.398L793.707 38.4463" stroke="white" stroke-width="1.4" stroke-linecap="round" stroke-linejoin="round"/>
<path d="M180.39 842.551L217.709 629.599C225.83 583.258 258.263 544.873 302.599 529.132L506.336 456.796L710.074 384.46C754.41 368.719 786.843 330.335 794.964 283.994L832.283 71.0415" stroke="white" stroke-width="1.4" stroke-linecap="round" stroke-linejoin="round"/>
</g>
<g opacity="0.34">
<path d="M-111.999 507.566L-84.1687 348.756C-76.0475 302.415 -43.6144 264.031 0.721576 248.289L152.659 194.345L304.596 140.4C348.932 124.659 381.365 86.2746 389.486 39.9333L417.317 -118.876" stroke="white" stroke-width="1.6" stroke-linecap="round" stroke-linejoin="round"/>
<path d="M-143.322 481.1L-115.491 322.29C-107.37 275.949 -74.9366 237.565 -30.6006 221.824L121.337 167.879L273.274 113.934C317.61 98.1931 350.043 59.8088 358.164 13.4675L385.995 -145.342" stroke="white" stroke-width="1.6" stroke-linecap="round" stroke-linejoin="round"/>
<path d="M-174.644 454.634L-146.813 295.825C-138.692 249.483 -106.259 211.099 -61.9228 195.358L90.0145 141.413L241.952 87.4685C286.288 71.7273 318.721 33.343 326.842 -12.9983L354.673 -171.808" stroke="white" stroke-width="1.6" stroke-linecap="round" stroke-linejoin="round"/>
<path d="M-80.6773 534.031L-52.8465 375.222C-44.7254 328.881 -12.2923 290.496 32.0437 274.755L183.981 220.811L335.918 166.866C380.254 151.125 412.687 112.74 420.809 66.3991L448.639 -92.4102" stroke="white" stroke-width="1.6" stroke-linecap="round" stroke-linejoin="round"/>
<path d="M-49.3551 560.497L-21.5243 401.688C-13.4031 355.347 19.03 316.962 63.366 301.221L215.303 247.276L367.24 193.332C411.576 177.591 444.01 139.206 452.131 92.8649L479.962 -65.9444" stroke="white" stroke-width="1.6" stroke-linecap="round" stroke-linejoin="round"/>
<path d="M-18.033 586.963L9.79781 428.154C17.919 381.813 50.3521 343.429 94.6881 327.687L246.625 273.743L398.563 219.798C442.899 204.057 475.332 165.673 483.453 119.331L511.284 -39.478" stroke="white" stroke-width="1.6" stroke-linecap="round" stroke-linejoin="round"/>
</g>
</svg>
